<svg xmlns="http://www.w3.org/2000/svg" width="625" height="381" viewBox="0 0 625 381">
    <g fill="none" fill-rule="evenodd">
        <g>
            <g>
                <path fill="#E1E8F6" d="M565.886 24.818c-5.59 0-10.124-4.522-10.124-10.1 0-5.579 4.533-10.1 10.124-10.1 5.59 0 10.124 4.521 10.124 10.1 0 5.578-4.533 10.1-10.124 10.1M136.02 266.996H81.93c-29.112 0-52.93 23.764-52.93 52.81 0 29.046 23.818 52.811 52.93 52.811H539.291c47.14 0 85.708-38.482 85.708-85.515s-38.569-85.514-85.707-85.515c-19.932 0-36.239-16.271-36.239-36.157 0-19.886 16.308-36.158 36.24-36.158h43.613c20.722 0 37.676-16.916 37.676-37.592s-16.954-37.59-37.676-37.59h-55.151c-8.067 0-14.668-6.588-14.668-14.637 0-8.05 6.6-14.635 14.668-14.635h9.722c5.568 0 10.122-4.545 10.122-10.1 0-5.556-4.554-10.1-10.122-10.1H473.684c-13.435 0-14.932 15.835-48.87 15.835h-78.692c-7.265 0-13.21 5.931-13.21 13.18s5.945 13.18 13.21 13.18h12.686c10.527 0 19.138 8.594 19.138 19.097 0 10.503-8.611 19.097-19.138 19.097h-38.18c-51.555 0-58.837 13.442-67.866 40.18-9.03 26.734-55.923 28.89-55.923 28.89h-64.121c-15.864 0-28.844 12.951-28.844 28.779 0 15.83 12.98 28.779 28.844 28.779h3.301c15.259 0 27.743 12.457 27.743 27.68 0 15.225-12.484 27.681-27.743 27.681" transform="translate(-1053 -100) translate(1053 100.383)"/>
                <path fill="#9FB2D9" d="M565.925 159.934c.005.065.004.133-.002.2-.003.027-.81 8.56.196 17.022 16.715-9.535 29.268-14.978 34.316-17.037-5.48-.423-10.995-.664-16.52-.714-5.972-.054-11.979.12-17.99.53zm-36.096 5.553c.026.11.04.222.037.34-.002.05-.446 16.78 3.288 32.426 10.997-7.837 21.356-14.371 30.558-19.71-1.136-8.293-.489-16.935-.363-18.418-11.354.903-22.6 2.665-33.52 5.362zm-41.12 15.77c.069.127.12.267.145.419.014.093 5.104 30.999 10.4 43.681 10.791-9.66 21.476-18.13 31.654-25.492-3.745-14.932-3.656-31.122-3.615-33.732-5.781 1.512-11.464 3.289-17.02 5.343-7.447 2.755-14.663 6.006-21.565 9.781zM458.41 203.39c.224.226.365.535.372.878.002.063.24 21.22 12.87 48.472 8.447-9.3 17.042-17.81 25.588-25.568-5.175-11.65-10.173-40.66-10.841-44.628-7.11 4.052-13.875 8.675-20.204 13.898-2.675 2.209-5.272 4.523-7.785 6.948zm-19.1 23.167c.348.218.586.598.604 1.038.684 17.89 8.395 42.66 10.895 50.273 6.171-8.166 12.527-15.847 18.981-23.06-11.533-24.437-13.27-44.341-13.53-49.297-6.238 6.297-11.924 13.3-16.95 21.046zm-14.285 28.958c.47.162.825.593.862 1.12 1.385 20.203 6.103 38.876 7.99 45.719 4.845-7.683 9.882-15.006 15.058-21.983-1.511-4.465-10.275-31.07-11.499-50.842-2.18 3.56-4.225 7.272-6.123 11.138-2.319 4.717-4.42 9.666-6.288 14.848zm-8.351 34.676c.575.072 1.049.53 1.115 1.132.007.06 2.049 18.583 5.3 29.354 2.894-5.278 5.884-10.406 8.955-15.385-1.033-3.528-6.606-23.286-8.486-45.51-3.073 9.384-5.4 19.51-6.884 30.41zm-1.354 45.522c1.974-4.06 4.006-8.038 6.091-11.935-2.625-7.285-4.573-19.901-5.523-26.976-.09.865-.173 1.736-.25 2.612-.542 6.066-.832 12.361-.858 18.892-.02 5.603.156 11.405.54 17.407zm59.81 5.34c-19.472-3.04-46.117-13.337-51.722-15.557-2.261 4.242-4.458 8.58-6.585 13.016 21.865 4.9 41.207 5.39 58.306 2.541zm32.81-10.55c-9.22-2.426-58.44-15.55-74.035-23.335-3.187 5.19-6.285 10.541-9.277 16.056 6.568 2.593 36.001 13.888 55.014 15.83.54.055.97.437 1.109.929 9.814-2.113 18.86-5.346 27.19-9.48zm29.82-20.928c-7.673-2.389-75.474-23.504-86.932-27.45-5.36 7.238-10.568 14.85-15.566 22.853 17.114 8.452 74.648 23.386 74.818 23.43.344.09.62.309.787.592 9.981-5.308 18.914-11.917 26.893-19.425zm21.434-25.127l-87.5-27.931c-6.55 7.325-13 15.135-19.255 23.449 14.14 4.78 86.582 27.319 86.8 27.387.202.062.376.17.518.307 7.259-7.105 13.707-14.952 19.437-23.212zm17.207-30.003c-9.418-4.822-70.41-23.411-77.308-25.507-8.519 7.73-17.089 16.21-25.51 25.483l86.797 27.709c.11.034.21.08.302.14 3.733-5.55 7.152-11.266 10.275-17.06 1.924-3.567 3.736-7.163 5.444-10.765zm14.457-37.314l-58.278-15.327c-10.048 7.26-20.602 15.611-31.263 25.133 11.556 3.522 66.81 20.46 76.17 25.191 5.513-11.928 9.9-23.864 13.371-34.997zm7.734-29.487l-.031-.009c-8.324-2.715-30.028-6.502-33.262-7.06-9.03 5.228-19.202 11.624-30.009 19.29l56.32 14.813c3.003-9.907 5.28-19.115 6.982-27.034zm4.44-25.801c-3.15 1.23-16.083 6.489-34.24 16.735 7.078 1.262 23.129 4.24 30.333 6.542 2.388-11.527 3.513-19.965 3.907-23.277zM412.716 338.439c-.505-6.914-.738-13.623-.714-20.133.027-6.612.321-12.989.87-19.131 2.047-22.976 7.627-42.796 15.946-59.729 9.003-18.324 21.206-33.26 35.613-45.15 13.349-11.017 28.574-19.403 44.883-25.434 17.495-6.47 36.24-10.232 55.253-11.623 6.415-.47 12.885-.671 19.37-.612 6.563.06 13.114.386 19.615.965v-.005c.735.064 1.377.423 1.82.95.441.525.681 1.218.618 1.952l-.026.186c-.263 2.534-6.109 56.81-32.554 105.854-26.75 49.608-74.487 93.88-158.623 74.382-.6-.139-1.108-.472-1.47-.917-.355-.431-.57-.977-.599-1.555h-.002z" transform="translate(-1053 -100) translate(1053 100.383)"/>
                <path fill="#8F9DD0" d="M246.06 227.617c-2.393-5.217-7.326-13.331-17.164-21.935-16.698-14.6-28.206-32.822-20.396-42.051 7.523-8.893 31.183 11.816 46.5 59.195l-8.907 4.772-.033.02z" transform="translate(-1053 -100) translate(1053 100.383)"/>
                <path fill="#D2DBF0" d="M213.204 168.448c-.355-.228-.453-.696-.217-1.042.234-.347.712-.442 1.067-.213.024.017 2.123 1.346 5.388 4.101l-1.718-3.98c-.11-.255.013-.55.274-.657.261-.108.562.012.672.268l2.551 5.917c1.49 1.33 3.147 2.902 4.915 4.728l-1.215-5.066c-.066-.27.105-.54.381-.604.277-.063.554.104.62.374l1.627 6.787c1.805 1.942 3.699 4.13 5.623 6.578l-.887-4.433c-.055-.273.126-.537.404-.589.278-.054.548.122.602.394l1.297 6.474c1.968 2.62 3.954 5.507 5.89 8.674l-.367-4.319c-.025-.274.184-.517.466-.54.282-.024.53.18.554.454l.547 6.42c1.769 3.035 3.485 6.308 5.1 9.826l.364-2.544c.04-.274.299-.465.58-.426.28.039.476.292.437.567l-.596 4.155c1.192 2.716 2.322 5.57 3.365 8.569l.465-2.527c.051-.273.32-.454.597-.406.28.05.465.312.414.583l-.802 4.347c.488 1.49.955 3.012 1.398 4.57l-1.392.73c-.44-1.562-.904-3.089-1.389-4.58-1.107-.613-3.797-2.024-5.237-2.158-.281-.026-.49-.27-.463-.546.025-.276.276-.478.559-.453 1.27.118 3.299 1.06 4.677 1.77-.395-1.163-.802-2.308-1.221-3.43-1.159-.495-4.051-1.638-6.39-1.782-.283-.018-.498-.257-.48-.533.017-.277.262-.486.545-.47 2.007.124 4.363.924 5.839 1.5-.887-2.288-1.822-4.48-2.794-6.587-1.817-.336-7.608-1.34-10.34-1.046-.282.031-.536-.168-.568-.442-.031-.275.171-.524.453-.553 2.565-.279 7.579.514 9.933.929-1.059-2.232-2.157-4.36-3.284-6.386-1.788-.374-7.678-1.497-12.334-1.08-.282.026-.532-.178-.558-.454-.026-.276.183-.52.465-.545 4.194-.376 9.335.456 11.78.927-.566-.991-1.138-1.957-1.714-2.896-1.793-.487-7.952-1.983-14.801-1.656-.283.015-.524-.198-.539-.474-.014-.278.203-.513.486-.528 5.996-.287 11.48.796 14.088 1.426-2.124-3.364-4.294-6.394-6.427-9.1-2.304-.054-11.275-.2-15.783.609-.278.05-.546-.13-.597-.403-.051-.27.133-.532.412-.583 4.173-.75 11.984-.7 15.155-.645-1.615-1.999-3.2-3.81-4.72-5.44-2.213.16-10.386.761-12.363 1.022-.28.038-.538-.153-.577-.428-.039-.274.158-.526.438-.564 1.81-.24 8.661-.755 11.614-.971-2.01-2.103-3.886-3.882-5.537-5.344-2.078.281-7.082.966-8.317 1.22-.277.057-.55-.117-.608-.387-.059-.272.12-.539.398-.595 1.097-.226 5.143-.789 7.521-1.113-3.454-2.96-5.701-4.383-5.726-4.4" transform="translate(-1053 -100) translate(1053 100.383)"/>
                <path fill="#D2DBF0" d="M269.582 282.617c-7.029-8.38-21.395-22.073-47.586-34.594-41.43-19.804-74.062-48.128-62.72-67.74 11.131-19.25 71.853 10.267 127.724 92.979-6.674 4.317-12.438 7.347-17.418 9.355" transform="translate(-1053 -100) translate(1053 100.383)"/>
                <path fill="#FFF" d="M274.897 273.646c-1.083.048-3.945.317-7.594 1.782-.254.103-.544-.022-.646-.278-.102-.256.021-.548.276-.652 3.197-1.283 5.843-1.683 7.283-1.807-.977-1.361-1.952-2.702-2.924-4.022-1.726.124-7.289.535-9.362.846-.273.041-.526-.148-.566-.422-.042-.274.146-.528.418-.57 1.904-.286 6.622-.648 8.808-.808-1.825-2.462-3.641-4.845-5.451-7.163-1.664.186-6.819.824-12.461 2.136-.267.06-.535-.107-.597-.376-.062-.27.105-.54.372-.602 5.117-1.189 9.842-1.83 11.967-2.084-1.828-2.329-3.648-4.582-5.458-6.769-2.282.254-9.69 1.161-17.796 3.044-.268.063-.536-.106-.598-.374-.061-.27.105-.54.373-.603 7.5-1.741 14.397-2.654 17.252-2.99-2.383-2.858-4.746-5.592-7.087-8.216-2.4.12-12.324.795-19.536 3.895-.252.109-.545-.008-.654-.263-.109-.254.008-.549.261-.659 6.719-2.887 15.71-3.711 19.082-3.927-2.881-3.201-5.727-6.223-8.533-9.084-3.24.49-16.254 2.723-21.982 7.67-.209.18-.523.155-.702-.057-.177-.21-.153-.527.056-.706 5.558-4.799 17.565-7.104 21.757-7.786-2.98-3.011-5.913-5.837-8.79-8.488-2.327.766-12.05 4.134-20.963 9.741-.233.146-.54.076-.685-.158-.146-.235-.076-.542.157-.69 8.443-5.311 17.596-8.633 20.651-9.667-1.705-1.556-3.39-3.051-5.053-4.486-2.233.683-11.717 3.823-23.963 11.277-.234.143-.541.067-.683-.169-.143-.237-.068-.545.168-.687 11.425-6.955 20.498-10.193 23.58-11.185-3.95-3.37-7.777-6.415-11.457-9.15-2.79 1.228-16.905 7.564-24.115 13.192-.216.17-.529.13-.696-.09-.169-.218-.129-.532.088-.701 6.924-5.404 20.048-11.418 23.792-13.084-2.145-1.576-4.242-3.052-6.28-4.429-2.39 1.075-13.318 6.137-23.064 13.12-.224.16-.534.107-.694-.117-.16-.225-.106-.539.117-.698 9.185-6.58 19.4-11.465 22.66-12.958-4.77-3.177-9.233-5.826-13.325-8.029-2.384.808-13.134 4.617-20.95 10.219-.224.16-.534.109-.694-.117-.16-.225-.107-.537.116-.697 7.187-5.151 16.787-8.799 20.321-10.046-1.69-.89-3.313-1.699-4.867-2.442-1.95.387-9.18 2.025-18.301 6.567-.247.123-.546.022-.668-.226-.123-.248-.022-.55.223-.672 7.789-3.877 14.24-5.668 17.259-6.368-12.51-5.785-20.045-6.846-20.107-6.855-.407-.064-.687-.447-.623-.858.063-.41.444-.69.852-.627.04.007 3.356.474 9.218 2.452-1.725-1.813-4.16-4.31-4.773-4.613-.247-.121-.349-.422-.228-.67.121-.248.42-.35.665-.228.945.467 4.997 4.747 6.385 6.23 2.385.865 5.105 1.95 8.133 3.318l-5.8-9.329c-.146-.233-.075-.542.157-.69.233-.146.54-.076.685.16l6.6 10.614c2.082.976 4.295 2.081 6.625 3.326l-6.35-11.109c-.139-.238-.057-.545.18-.682.237-.14.542-.058.679.18l7.154 12.513c3.496 1.92 7.238 4.15 11.204 6.751l-5.685-11.594c-.122-.249-.023-.55.224-.672.246-.124.545-.023.667.226l6.443 13.138c1.813 1.217 3.666 2.505 5.56 3.876l-4.88-10.47c-.117-.25-.011-.549.238-.668.248-.119.545-.011.663.24l5.648 12.118c3.517 2.6 7.166 5.473 10.927 8.645l-3.9-10.306c-.1-.258.03-.547.287-.645.256-.1.544.03.642.288l4.54 11.994c1.492 1.282 3.004 2.616 4.529 3.992l-2.385-7.925c-.08-.264.068-.543.33-.623.264-.081.541.069.621.334l2.863 9.514c2.84 2.604 5.732 5.38 8.672 8.333l-2.361-8.864c-.07-.266.087-.54.352-.612.265-.07.538.088.609.355l2.806 10.536c2.576 2.625 5.187 5.398 7.827 8.306l-1.736-7.907c-.06-.27.11-.539.378-.6.268-.059.534.112.594.381l2.111 9.623c2.307 2.576 4.633 5.263 6.978 8.065l-.72-7.216c-.028-.276.17-.522.444-.551.273-.028.518.173.546.447l.867 8.68c1.696 2.049 3.403 4.16 5.117 6.335l.198-6.23c.01-.274.238-.491.513-.483.274.009.49.24.481.516l-.236 7.416c1.579 2.02 3.163 4.089 4.754 6.217l.35-4.048c.024-.274.266-.48.54-.454.273.024.476.267.452.542l-.447 5.161c1.187 1.601 2.377 3.239 3.57 4.9l1.337-3.42c.1-.257.39-.383.643-.282.256.101.381.392.28.649l-1.57 4.017c.973 1.363 1.948 2.748 2.924 4.153-.44.254-.876.503-1.306.744-.934-1.342-1.865-2.666-2.797-3.971" transform="translate(-1053 -100) translate(1053 100.383)"/>
                <path fill="#D2DBF0" d="M276.848 377.617c.325-8.522.125-16.59-.557-24.217-3.471-38.864-19.38-66.595-41.923-85.165-22.514-18.545-51.633-27.921-81.574-30.11-10.609-.775-21.304-.65-31.829.287-.582.05-1.011.561-.961 1.141.003.03.007.061.012.09.233 2.257 10.762 102.187 74.303 137.974h82.529z" transform="translate(-1053 -100) translate(1053 100.383)"/>
                <path fill="#FFF" d="M126.33 242.944c-.506-.193-1.074.063-1.266.57-.192.51.063 1.078.57 1.27.091.036 10.794 4.02 26.786 13.07-5.477.979-17.975 3.304-23.402 5.08-.516.168-.798.725-.63 1.242.167.518.722.8 1.238.632 6.374-2.086 22.991-4.992 25.469-5.42 6.914 4.013 14.702 8.924 22.976 14.812l-43.147 11.38c-.524.137-.836.676-.698 1.202.138.526.675.84 1.2.701l44.72-11.794c7.695 5.573 15.775 11.986 23.939 19.298-8.876 2.712-51.425 15.792-58.394 19.378-.481.246-.672.838-.425 1.322.246.482.837.673 1.318.426 7.186-3.697 53.92-17.98 59.204-19.59 6.522 5.935 13.085 12.447 19.533 19.567l-66.461 21.276c-.518.166-.804.721-.639 1.24.166.519.72.807 1.237.64l67.309-21.547c5.015 5.624 9.953 11.622 14.743 18.005-10.827 3.672-66.295 20.977-66.463 21.03-.516.161-.805.713-.644 1.23.16.52.71.81 1.227.648.172-.053 57.825-18.04 67.114-21.25 4.104 5.558 8.092 11.404 11.918 17.549-13.103 6.489-57.157 17.956-57.288 17.99-.526.136-.84.674-.705 1.202.136.528.672.845 1.198.709.131-.035 44.658-11.624 57.834-18.22 2.441 3.985 4.814 8.094 7.104 12.33-3.322 1.313-14.283 5.545-25.54 8.695h6.888c9.144-2.87 17.09-5.96 19.587-6.951 1.212 2.28 2.4 4.598 3.563 6.951h2.193c-1.373-2.808-2.785-5.565-4.228-8.271 2.898-8.067 4.72-24.654 4.726-24.703.06-.54-.328-1.028-.867-1.088-.54-.06-1.025.33-1.085.87-.006.045-1.57 14.27-4.06 22.54-2.215-4.053-4.504-7.99-6.857-11.814.828-2.828 5.444-19.247 6.674-37.22.038-.542-.37-1.013-.91-1.051-.54-.04-1.009.369-1.048.91-1.06 15.513-4.674 29.851-6.118 35.106-3.71-5.9-7.566-11.524-11.53-16.88 1.194-3.536 8.293-25.15 8.876-40.446.021-.544-.401-1.003-.944-1.026-.544-.022-1.001.403-1.023.948-.525 13.737-6.43 32.757-8.344 38.602-4.725-6.27-9.592-12.167-14.533-17.707 10.201-21.678 10.394-38.717 10.395-38.767.01-.544-.421-.995-.964-1.006-.542-.01-.992.421-1.003.966-.001.048-.183 16.295-9.854 37.219-6.468-7.141-13.049-13.674-19.592-19.632 4.25-9.598 8.346-34.543 8.359-34.617.086-.537-.276-1.043-.81-1.13-.536-.088-1.04.276-1.127.814-.011.07-3.91 23.801-7.964 33.538-8.263-7.416-16.445-13.92-24.237-19.572 3.125-12.497 2.764-26.143 2.763-26.184-.012-.544-.463-.975-1.005-.962-.543.014-.973.465-.96 1.009.001.038.34 12.884-2.518 24.898-8.42-6.017-16.352-11.036-23.397-15.134.954-6.984.264-14.294.262-14.315-.05-.542-.528-.94-1.068-.89-.54.049-.937.53-.888 1.07.003.021.62 6.572-.15 13.07-16.749-9.581-28.042-13.783-28.137-13.818" transform="translate(-1053 -100) translate(1053 100.383)"/>
                <path fill="#0E2D34" d="M293.763 208.617c-13.581-9.536-31.571-25.587-44.99-50.064-19.015-34.685 37.945 1.463 79.227 41.96l-26.892 8.104h-7.345z" transform="translate(-1053 -100) translate(1053 100.383)"/>
                <path fill="#1B7154" d="M239.031 290.558c8.796 12.013 32.867 37.101 55.886 63.365l27.27 16.694L331 353.46c-14.803-36.981-36.324-75.972-57.204-97.586-36.632-37.917-65.637-7.472-34.765 34.685" transform="translate(-1053 -100) translate(1053 100.383)"/>
                <path fill="#0E2D34" d="M323 369.761c-24.59-60.93-81.143-116.66-81.348-116.863-.403-.4-1.028-.369-1.396.072-.366.44-.336 1.122.067 1.523.204.202 55.85 55.04 80.445 115.027l1.792 1.097.44-.856z" transform="translate(-1053 -100) translate(1053 100.383)"/>
                <path fill="#0E2D34" d="M284.4 377.617c-15.708-10.58-36.516-28.386-52.036-55.54-21.993-38.479 43.887 1.622 91.636 46.55l-31.104 8.99H284.4z" transform="translate(-1053 -100) translate(1053 100.383)"/>
                <path fill="#A6C86B" d="M295.542 88.563c5.442 14.59 13.704 48.938 23.458 84.46-4.199 14.546-13.25 27.053-25.242 35.594-21.817-33.38-41.024-71.816-48.076-102.128-13.803-59.332 29.14-73.469 49.86-17.926" transform="translate(-1053 -100) translate(1053 100.383)"/>
                <path fill="#5F9850" d="M305.5 198.617c-30.997-57.002-45.41-126.241-45.472-126.529-.136-.646.233-1.29.825-1.44.591-.15 1.182.253 1.32.9.06.285 14.312 68.722 44.827 125.18-.49.638-.989 1.268-1.5 1.89" transform="translate(-1053 -100) translate(1053 100.383)"/>
                <path fill="#A6C86B" d="M314 371.716c-2.193-8.145-5.628-17.834-10.945-26.833-12.44-21.058-33.612-22.138-38.396-16.019-3.438 4.397-8.045 22.54-.88 43.753h40.494c3.32 0 6.57-.312 9.727-.901" transform="translate(-1053 -100) translate(1053 100.383)"/>
                <path fill="#5F9850" d="M302 372.617c-.813-1.419-1.662-2.85-2.546-4.291.204-3.82.673-14.566-.146-20.389-.058-.417-.332-.685-.613-.598-.28.087-.46.496-.401.913.708 5.038.414 13.995.2 18.53-3.58-5.691-7.719-11.497-12.477-17.121-.212-11.007-1.89-18.489-1.894-18.512-.091-.406-.384-.626-.657-.493-.271.134-.42.57-.33.977.004.02 1.51 6.736 1.815 16.786-5.362-6.188-11.48-12.13-18.442-17.423-.511-.387-1.136-.085-1.396.676s-.056 1.692.455 2.08c3.39 2.578 6.573 5.312 9.568 8.153-2.128.324-5.329 1.082-8.301 2.853-.265.159-.394.609-.288 1.003.106.396.408.588.673.43 3.582-2.135 7.51-2.743 9.335-2.917 4.635 4.54 8.79 9.33 12.502 14.182-3.664 1.023-12.574 3.942-20.612 9.928-.255.19-.358.653-.23 1.035.127.38.438.534.693.344 8.59-6.399 18.216-9.243 21.134-10.004 3.463 4.634 6.527 9.306 9.225 13.858H302z" transform="translate(-1053 -100) translate(1053 100.383)"/>
                <path fill="#F18A00" d="M531.782 165.652c-13.07 1.989-35.768 4.748-38.579 3.757-3.817-1.347-25.322-23.946-27.185-29.8 0 0-.178-.65.585-.767.763-.117 3.44.219 4.272-.777.832-.997 1.435-.193 2.027 1.073.59 1.265 17.765 15.97 22.225 18.897 4.46 2.927 30.786-9.353 34.24-10.42 15.999-4.94 21.753 15.093 2.415 18.037" transform="translate(-1053 -100) translate(1053 100.383)"/>
                <path fill="#00000F" d="M321.999 36.617H460c12.65 0 22.999 10.487 22.999 23.306V349.31c0 12.82-10.35 23.307-22.999 23.307H322c-12.65 0-22.999-10.488-22.999-23.307V59.923c0-12.82 10.35-23.306 22.999-23.306" transform="translate(-1053 -100) translate(1053 100.383)"/>
                <path fill="#101537" d="M321.596 39.617c-10.77 0-19.596 8.893-19.596 19.745v291.51c0 10.854 8.826 19.745 19.596 19.745h139.808c10.77 0 19.596-8.89 19.596-19.744V59.362c0-10.852-8.826-19.745-19.596-19.745H321.596z" transform="translate(-1053 -100) translate(1053 100.383)"/>
                <path fill="#FFF" d="M321.175 46.617C314.5 46.617 309 52.165 309 58.896v291.443c0 6.732 5.5 12.278 12.175 12.278h139.65c6.673 0 12.175-5.546 12.175-12.278V58.896c0-6.731-5.5-12.279-12.176-12.279h-139.65z" transform="translate(-1053 -100) translate(1053 100.383)"/>
                <path fill="#101537" d="M391.5 56.617h-42.003c-2.959 0-5.38-2.422-5.38-5.385v-2.065c-.703-2.157-2.735-3.727-5.117-3.727l5.118-1.87v-1.953h94.764v1.953L444 45.44c-2.382 0-4.415 1.57-5.118 3.727v2.065c0 2.962-2.42 5.385-5.38 5.385H391.5z" transform="translate(-1053 -100) translate(1053 100.383)"/>
                <path fill="#00000F" d="M375.773 46.617c.827 0 1.499.448 1.499 1 0 .553-.672 1-1.499 1h-1.275c-.828 0-1.498-.447-1.498-1 0-.552.67-1 1.498-1h1.275zm4.998 2c-.827 0-1.498-.447-1.498-1 0-.552.67-1 1.498-1h27.731c.829 0 1.498.448 1.498 1 0 .553-.67 1-1.498 1h-27.731z" transform="translate(-1053 -100) translate(1053 100.383)"/>
                <path fill="#C0CDEA" d="M445.703 341.83h9.632c.167 0 .319.077.43.2.111.121.18.291.18.477v6.633c0 .186-.07.356-.18.479-.111.122-.263.2-.43.2h-7.079c-.875 0-1.635.38-2.262.89-.343.28-.644.6-.9.915v-9.117c0-.186.067-.356.177-.479.111-.123.264-.198.432-.198zm4.392 9.201h5.24c.468 0 .894-.213 1.202-.554.309-.343.5-.815.5-1.337v-2.683h.528c.086 0 .165.037.22.1.058.065.093.152.093.247v6.39c-.137-.147-.286-.29-.447-.42-.487-.398-1.08-.694-1.762-.694h-5.262c-.084 0-.163-.039-.22-.103-.057-.062-.092-.15-.092-.244v-.702zm2.644-6.44h-6.261c-.18 0-.327-.163-.327-.366 0-.2.146-.363.327-.363h6.261c.18 0 .327.163.327.363 0 .203-.146.366-.327.366zm1.24-.73h.578c.181 0 .328.164.328.364 0 .203-.147.366-.328.366h-.578c-.181 0-.328-.163-.328-.366 0-.2.147-.363.328-.363zm-5.683 2.81h5.322c.18 0 .329.163.329.364 0 .201-.148.364-.329.364h-5.322c-.18 0-.327-.163-.327-.364 0-.2.147-.364.327-.364zm-1.24.728h-.578c-.18 0-.327-.163-.327-.364 0-.2.146-.364.327-.364h.577c.182 0 .328.163.328.364 0 .201-.146.364-.328.364zm8.279-6.782h-9.632c-.467 0-.892.212-1.2.554l-.003.003c-.308.343-.5.814-.5 1.333l.001 10.937c-.01.316.029.49.35.617.513.248.525.045.693-.306l.016-.037c.146-.286.712-1.324 1.579-2.032.46-.376 1.007-.655 1.617-.655h.746v.702c0 .43.159.82.413 1.102.253.283.606.458.992.458h5.262c.418 0 .797.196 1.118.457.59.481.986 1.173 1.114 1.42l.025.055c.163.356.292.502.711.301.326-.154.344-.304.332-.596.07-2.642 0-5.48 0-8.126 0-.43-.157-.82-.412-1.104-.255-.282-.607-.457-.992-.457h-.527v-2.736c0-.52-.192-.99-.501-1.333-.308-.345-.734-.557-1.202-.557zM408.785 337.725c.567-.566 1.35-.917 2.215-.917.864 0 1.648.351 2.214.917.567.566.917 1.348.917 2.216 0 .866-.35 1.65-.914 2.214l-.003.003c-.565.565-1.348.915-2.214.915-.853 0-1.624-.34-2.187-.888l-.028-.03c-.565-.566-.916-1.35-.916-2.214 0-.866.35-1.649.916-2.216zM405 351.091v3.085c0 .396.162.756.422 1.015l.003.003c.26.26.62.423 1.014.423h9.12c.395 0 .756-.163 1.016-.423l.003-.003c.26-.262.422-.621.422-1.015v-3.065l-.001-.024.001-.017v-.377c0-1.65-.676-3.15-1.762-4.238-1.087-1.09-2.587-1.765-4.238-1.765-1.65 0-3.152.675-4.238 1.763l-.034.036c-1.067 1.085-1.728 2.572-1.728 4.204v.397zm1.19.02v-.418c0-1.308.529-2.501 1.383-3.37l.03-.028c.873-.872 2.075-1.414 3.397-1.414 1.321 0 2.524.542 3.396 1.414.873.87 1.415 2.075 1.415 3.398v3.483c0 .069-.028.132-.072.176l-.003.003c-.044.043-.107.07-.176.07h-9.12c-.07 0-.132-.027-.177-.072-.046-.045-.073-.108-.073-.177v-3.065zm4.81-15.494c-1.193 0-2.274.484-3.055 1.267-.783.781-1.267 1.863-1.267 3.057 0 1.193.484 2.274 1.267 3.056l.035.033c.78.764 1.846 1.233 3.02 1.233 1.19 0 2.27-.483 3.053-1.266l.002-.002c.782-.785 1.266-1.865 1.266-3.054 0-1.192-.485-2.273-1.267-3.056-.78-.784-1.861-1.268-3.054-1.268zM366.147 344.833c.347-.328.825-.531 1.353-.531.516 0 .985.193 1.327.506l.026.025c.346.329.559.783.559 1.284 0 .503-.212.957-.557 1.283l-.002.003c-.345.326-.824.53-1.353.53-.528 0-1.006-.204-1.353-.533-.347-.326-.56-.78-.56-1.283 0-.5.214-.955.56-1.284zm1.353-1.619c.825 0 1.575.313 2.127.82l.035.031c.554.525.896 1.251.896 2.052 0 .798-.342 1.523-.896 2.05l-.002.002c-.555.525-1.32.85-2.16.85-.844 0-1.61-.325-2.162-.851-.554-.527-.897-1.252-.897-2.05 0-.802.343-1.528.896-2.053.554-.525 1.319-.85 2.163-.85zm-2.422-1.085c.355-.195.74-.35 1.147-.454.264-.048.463-.27.463-.532v-1.44h1.622v1.44c.002.24.172.46.428.522.42.106.818.264 1.184.464.371.203.71.45 1.01.737.178.178.468.226.701.096l1.316-.72.812 1.335-1.282.702c-.241.113-.372.375-.299.63.058.202.1.4.128.596.026.19.04.396.04.612 0 .217-.014.42-.04.612-.028.195-.071.395-.128.596l.002.001c-.066.232.036.486.266.61l1.314.72-.813 1.337-1.316-.721c-.218-.12-.504-.092-.69.087-.302.29-.646.541-1.021.745-.355.196-.742.35-1.148.455-.263.048-.464.269-.464.533v1.438h-1.622v-1.438c0-.24-.17-.46-.426-.523-.42-.107-.818-.263-1.184-.465-.371-.202-.71-.45-1.01-.735-.178-.18-.469-.226-.702-.097l-1.315.72-.814-1.335 1.27-.696c.25-.11.388-.376.312-.636-.056-.201-.1-.402-.128-.596-.026-.191-.041-.396-.041-.612 0-.216.015-.42.04-.612.03-.195.073-.394.13-.597h-.002c.065-.231-.037-.486-.267-.61l-1.314-.72.814-1.337 1.316.72c.218.121.504.093.69-.087.302-.288.645-.54 1.02-.745zm.466-1.388c-.364.12-.711.27-1.04.45-.332.182-.644.395-.932.633l-1.177-.645-.054-.027c-.198-.092-.416-.108-.613-.058-.217.055-.413.19-.534.388l-1.075 1.77c-.122.199-.147.427-.09.632.058.206.2.391.41.506l1.177.645c-.022.107-.04.218-.056.33-.035.254-.055.506-.055.752s.02.497.055.752c.016.112.034.223.056.33l-1.175.645c-.213.115-.354.3-.412.506-.057.205-.032.434.09.632l1.075 1.767c.122.201.317.336.534.39.216.056.455.032.667-.083l1.177-.645c.288.237.6.45.932.632.329.18.676.331 1.04.45v1.29c0 .228.098.436.258.587.158.153.38.247.621.247h2.153c.242 0 .463-.094.622-.244l.049-.052c.129-.146.209-.334.209-.539v-1.29c.363-.118.71-.27 1.038-.449.332-.183.646-.395.934-.632l1.177.645.054.026c.197.092.415.108.613.057.217-.054.411-.189.534-.387l1.075-1.77c.122-.198.147-.427.09-.632-.06-.205-.2-.391-.41-.506l-1.177-.644c.021-.108.04-.219.055-.331.036-.255.054-.506.054-.752 0-.247-.018-.498-.054-.752-.014-.112-.034-.222-.055-.33l1.177-.645c.21-.115.35-.3.41-.505.057-.206.032-.434-.09-.633l-1.075-1.767c-.122-.201-.317-.336-.534-.39-.216-.056-.457-.032-.667.084l-1.177.645c-.288-.238-.6-.45-.934-.633-.327-.18-.675-.33-1.038-.45v-1.289c0-.229-.099-.436-.258-.588-.159-.153-.38-.247-.622-.247h-2.153c-.242 0-.463.094-.621.245l-.05.05c-.13.147-.208.334-.208.54v1.29zM329.326 351.918l-.013.013-.012.011c-.811.804-1.87 1.206-2.928 1.206-1.052 0-2.105-.395-2.913-1.187l-.028-.03c-.81-.812-1.217-1.877-1.217-2.941 0-1.066.405-2.13 1.216-2.942.812-.81 1.877-1.216 2.942-1.216 1.063 0 2.129.405 2.94 1.217.812.81 1.219 1.875 1.219 2.94 0 1.06-.403 2.12-1.206 2.929zm-6.752-6.725c-1.049 1.048-1.574 2.424-1.574 3.797 0 1.375.525 2.75 1.574 3.8l.036.033c1.045 1.026 2.404 1.54 3.763 1.54 1.184 0 2.37-.39 3.345-1.168l2.246 2.245c.236.236.62.236.858 0 .237-.238.237-.622 0-.86l-2.245-2.244c.779-.975 1.17-2.161 1.17-3.346 0-1.373-.526-2.749-1.574-3.797-1.05-1.052-2.425-1.576-3.8-1.576-1.374 0-2.748.524-3.796 1.574l-.003.002z" transform="translate(-1053 -100) translate(1053 100.383)"/>
                <path fill="#D64C47" d="M443.5 343.617c1.377 0 2.5-1.123 2.5-2.5s-1.123-2.5-2.5-2.5-2.5 1.123-2.5 2.5 1.123 2.5 2.5 2.5" transform="translate(-1053 -100) translate(1053 100.383)"/>
                <path fill="#FFF" d="M446 340.617h-.874v-1.44c-.318.13-.694.228-1.126.29v-.347c.228-.032.476-.093.742-.185.267-.09.45-.197.549-.318H446v2z" transform="translate(-1053 -100) translate(1053 100.383)"/>
                <path fill="#9FB2D9" d="M319.503 55.544c-.278 0-.503-.191-.503-.427s.225-.428.503-.428h10.995c.277 0 .502.192.502.428s-.225.427-.502.427h-10.995zm0 3.073c-.278 0-.503-.191-.503-.427s.225-.428.503-.428h10.995c.277 0 .502.192.502.428s-.225.427-.502.427h-10.995zm0-6.145c-.278 0-.503-.192-.503-.428 0-.235.225-.427.503-.427h10.995c.277 0 .502.192.502.427 0 .236-.225.428-.502.428h-10.995zM462.494 51.617h-11.989c-.415 0-.791.167-1.064.437-.271.27-.441.639-.441 1.045v4.037c0 .408.17.779.443 1.046s.649.435 1.062.435h11.989c.397 0 .76-.154 1.03-.405l.034-.03c.272-.267.442-.638.442-1.046v-4.037c0-.406-.17-.776-.443-1.046-.274-.269-.65-.436-1.063-.436zm-11.989.977h6.374v5.047h-6.374c-.141 0-.27-.057-.362-.15-.094-.092-.15-.217-.15-.355v-4.037c0-.139.056-.265.15-.356.093-.092.222-.149.362-.149z" transform="translate(-1053 -100) translate(1053 100.383)"/>
                <path fill="#00000F" d="M28.382 379.617h-4.764c-1.99 0-3.618-1.575-3.618-3.5s1.628-3.5 3.618-3.5h4.764c1.99 0 3.618 1.575 3.618 3.5s-1.628 3.5-3.618 3.5" transform="translate(-1053 -100) translate(1053 100.383)"/>
                <path fill="#E1E8F6" d="M395.654 235.617h-73.309c-.74 0-1.345.572-1.345 1.27v2.462c0 .698.606 1.268 1.345 1.268h73.309c.74 0 1.346-.57 1.346-1.268v-2.463c0-.697-.606-1.269-1.346-1.269M395.654 225.617h-73.309c-.74 0-1.345.572-1.345 1.27v2.461c0 .699.606 1.27 1.345 1.27h73.309c.74 0 1.346-.571 1.346-1.27v-2.462c0-.697-.606-1.269-1.346-1.269M395.654 215.617h-73.309c-.74 0-1.345.572-1.345 1.27v2.463c0 .698.606 1.267 1.345 1.267h73.309c.74 0 1.346-.57 1.346-1.267v-2.463c0-.698-.606-1.27-1.346-1.27" transform="translate(-1053 -100) translate(1053 100.383)"/>
                <path fill="#00000F" d="M584.382 379.617h-4.765c-1.99 0-3.617-1.575-3.617-3.5s1.628-3.5 3.617-3.5h4.765c1.99 0 3.618 1.575 3.618 3.5s-1.628 3.5-3.618 3.5" transform="translate(-1053 -100) translate(1053 100.383)"/>
                <path fill="#F29C94" d="M459.478 138.935H323.522c-.902 0-1.722.393-2.317 1.025h-.003c-.594.63-.963 1.503-.963 2.463v15.387c0 .962.369 1.835.963 2.465l.003.002c.593.63 1.414 1.023 2.317 1.023h135.956c.889 0 1.699-.38 2.29-.994l.028-.031c.594-.632.964-1.505.964-2.465v-15.387c0-.958-.37-1.83-.964-2.463-.596-.632-1.416-1.025-2.318-1.025m-135.956-1.318h135.956c1.244 0 2.375.54 3.195 1.413.819.869 1.327 2.071 1.327 3.393v15.387c0 1.324-.508 2.525-1.327 3.397l-.037.034c-.818.85-1.933 1.376-3.158 1.376H323.522c-1.241 0-2.371-.54-3.191-1.41l-.004-.005c-.82-.871-1.327-2.072-1.327-3.392v-15.387c0-1.319.508-2.521 1.33-3.392.817-.874 1.948-1.414 3.192-1.414" transform="translate(-1053 -100) translate(1053 100.383)"/>
                <path fill="#FCC100" d="M362.606 147.798l4.694-.01c.308 0 .569.199.665.504.095.307-.006.629-.255.818l-3.803 2.88 1.46 4.668c.095.307-.005.63-.254.818-.249.188-.572.188-.82-.001l-3.794-2.896-3.791 2.896c-.25.19-.572.19-.822 0-.248-.188-.348-.51-.252-.817l1.459-4.669-3.803-2.88c-.249-.188-.35-.51-.255-.817.097-.305.357-.504.665-.503l4.695.009 1.442-4.675c.094-.306.355-.506.662-.506.309 0 .57.2.664.506l1.443 4.675zM384.606 147.798l4.694-.01c.308 0 .57.199.665.504.094.307-.006.629-.254.818l-3.804 2.88 1.46 4.668c.095.307-.004.63-.253.818-.25.188-.573.188-.82-.001l-3.794-2.896-3.793 2.896c-.248.19-.57.19-.82 0-.25-.188-.348-.51-.253-.817l1.458-4.669-3.802-2.88c-.25-.188-.35-.51-.255-.817.096-.305.357-.504.665-.503l4.695.009 1.442-4.675c.094-.306.356-.506.663-.506.307 0 .57.2.663.506l1.443 4.675zM404.606 147.798l4.694-.01c.307 0 .57.199.665.504.095.307-.005.629-.255.818l-3.803 2.88 1.46 4.668c.095.307-.004.63-.253.818-.25.188-.573.188-.822-.001l-3.792-2.896-3.793 2.896c-.248.19-.57.19-.821 0-.248-.188-.347-.51-.253-.817l1.46-4.669-3.803-2.88c-.25-.188-.35-.51-.255-.817.095-.305.357-.504.664-.503l4.695.009 1.443-4.675c.094-.306.356-.506.663-.506.308 0 .569.2.663.506l1.443 4.675zM426.606 147.798l4.694-.01c.308 0 .569.199.665.504.095.307-.006.629-.255.818l-3.803 2.88 1.46 4.668c.095.307-.005.63-.254.818-.249.188-.572.188-.82-.001l-3.794-2.896-3.791 2.896c-.248.19-.572.19-.822 0-.248-.188-.348-.51-.252-.817l1.459-4.669-3.803-2.88c-.249-.188-.35-.51-.255-.817.096-.305.357-.504.665-.503l4.695.009 1.442-4.675c.094-.306.355-.506.662-.506.308 0 .57.2.664.506l1.443 4.675z" transform="translate(-1053 -100) translate(1053 100.383)"/>
                <path fill="#AEABBA" d="M445.606 147.798l4.694-.01c.308 0 .57.199.665.504.094.307-.006.629-.254.818l-3.804 2.88 1.46 4.668c.095.307-.004.63-.253.818-.25.188-.573.188-.822-.001l-3.792-2.896-3.793 2.896c-.248.19-.572.19-.82 0-.25-.188-.349-.51-.253-.817l1.46-4.669-3.804-2.88c-.25-.188-.35-.51-.255-.817.096-.305.356-.504.665-.503l4.695.009 1.442-4.675c.094-.306.356-.506.663-.506.307 0 .569.2.663.506l1.443 4.675z" transform="translate(-1053 -100) translate(1053 100.383)"/>
                <path fill="#FCC100" d="M340.605 147.798l4.695-.01c.307 0 .568.199.664.504.096.307-.004.629-.254.818l-3.803 2.88 1.459 4.668c.096.307-.004.63-.252.818-.25.188-.573.188-.822-.001l-3.792-2.896-3.793 2.896c-.248.19-.57.19-.821 0-.248-.188-.348-.51-.253-.817l1.46-4.669-3.804-2.88c-.249-.188-.348-.51-.254-.817.096-.305.357-.504.664-.503l4.695.009 1.443-4.675c.094-.306.356-.506.663-.506.307 0 .569.2.664.506l1.441 4.675z" transform="translate(-1053 -100) translate(1053 100.383)"/>
                <path fill="#E1E8F6" d="M461.648 247.617H322.352c-.743 0-1.352.572-1.352 1.27v2.463c0 .698.609 1.267 1.352 1.267h139.296c.743 0 1.352-.57 1.352-1.267v-2.463c0-.698-.609-1.27-1.352-1.27M322.352 105.617h139.296c.743 0 1.352.57 1.352 1.268v2.463c0 .699-.609 1.27-1.352 1.27H322.352c-.743 0-1.352-.571-1.352-1.27v-2.463c0-.697.609-1.268 1.352-1.268" transform="translate(-1053 -100) translate(1053 100.383)"/>
                <path fill="#DB4A46" d="M436.5 227.617c13.495 0 24.5-11.005 24.5-24.5 0-13.494-11.005-24.5-24.5-24.5-13.494 0-24.5 11.006-24.5 24.5 0 13.495 11.006 24.5 24.5 24.5" transform="translate(-1053 -100) translate(1053 100.383)"/>
                <path fill="#FFF" d="M436.5 215.617l10.072-12.83c7.825-9.97-5.357-16.417-10.072-8.878-4.716-7.54-17.897-1.091-10.071 8.878l10.07 12.83z" transform="translate(-1053 -100) translate(1053 100.383)"/>
                <path fill="#DB4A46" d="M577.104 39.617h-52.208c-3.793 0-6.896 3.086-6.896 6.858V94.85c0 .317.181.586.475.707.294.122.614.058.84-.166l11.748-11.685h46.041c3.793 0 6.896-3.086 6.896-6.857V46.475c0-3.772-3.103-6.858-6.896-6.858" transform="translate(-1053 -100) translate(1053 100.383)"/>
                <path fill="#FFF" d="M566 66.617c2.753 0 5-2.246 5-5 0-2.753-2.247-5-5-5-2.754 0-5 2.247-5 5 0 2.754 2.246 5 5 5M552 66.617c2.754 0 5-2.246 5-5 0-2.753-2.246-5-5-5s-5 2.247-5 5c0 2.754 2.246 5 5 5M535 66.617c2.754 0 5-2.246 5-5 0-2.753-2.246-5-5-5s-5 2.247-5 5c0 2.754 2.246 5 5 5" transform="translate(-1053 -100) translate(1053 100.383)"/>
                <path fill="#1874BA" d="M324.027 259.617h50.947c2.764 0 5.026 2.252 5.026 5.004v38.992c0 2.753-2.262 5.004-5.026 5.004h-50.947c-2.764 0-5.027-2.251-5.027-5.004v-38.992c0-2.752 2.263-5.004 5.027-5.004" transform="translate(-1053 -100) translate(1053 100.383)"/>
                <path fill="#E1E8F6" d="M395.654 205.617h-73.309c-.74 0-1.345.572-1.345 1.27v2.462c0 .698.606 1.268 1.345 1.268h73.309c.74 0 1.346-.57 1.346-1.268v-2.463c0-.697-.606-1.269-1.346-1.269M395.654 196.617h-73.309c-.74 0-1.345.572-1.345 1.27v2.462c0 .698.606 1.268 1.345 1.268h73.309c.74 0 1.346-.57 1.346-1.268v-2.463c0-.697-.606-1.269-1.346-1.269M395.654 186.617h-73.309c-.74 0-1.345.57-1.345 1.268v2.463c0 .698.606 1.27 1.345 1.27h73.309c.74 0 1.346-.572 1.346-1.27v-2.463c0-.697-.606-1.268-1.346-1.268" transform="translate(-1053 -100) translate(1053 100.383)"/>
                <path fill="#F5C890" d="M324.437 166.617h69.125c1.892 0 3.438 1.713 3.438 3.808v7.384c0 2.095-1.546 3.808-3.438 3.808h-69.125c-1.89 0-3.437-1.713-3.437-3.808v-7.384c0-2.095 1.547-3.808 3.437-3.808" transform="translate(-1053 -100) translate(1053 100.383)"/>
                <path fill="#00000F" d="M40.722 379.617h539.555c2.048 0 3.723-1.575 3.723-3.5s-1.675-3.5-3.723-3.5H40.722c-2.048 0-3.722 1.575-3.722 3.5s1.674 3.5 3.722 3.5" transform="translate(-1053 -100) translate(1053 100.383)"/>
                <path fill="#FFF" d="M339.83 282.09h-4.538c-.212 0-.407.082-.553.215l-.027.028c-.15.15-.242.356-.242.582v14.401c0 .227.092.432.242.582.149.15.354.243.58.243h4.537c.212 0 .407-.083.553-.215l.027-.028c.149-.15.241-.355.241-.582v-14.401c0-.226-.092-.432-.241-.582-.148-.15-.354-.243-.58-.243zm2.291 12.918c.67.702 3.031 2.998 5.23 2.998h9.984c2.894 0 3.43-2.853 3.432-2.861.044-.213.182-.406.39-.51 1.465-.737 1.154-3.085 1.101-3.42-.058-.277.043-.574.284-.751 1.834-1.358.617-4.256.437-4.656-.086-.16-.115-.353-.065-.543.162-.599.234-1.114.234-1.555 0-.713-.192-1.212-.49-1.554-.302-.346-.737-.56-1.205-.687-.433-.118-.9-.161-1.331-.161h-5.445c-.916 0-1.773-.228-2.203-1.27-.336-.815-.306-2.17.4-4.442.235-.758.335-1.483.335-2.161.003-1.219-.325-2.272-.765-3.053-.401-.71-.861-1.166-1.212-1.276l-.055-.011h-1.441c-.019 1.905-.124 3.74-.576 5.364-.538 1.926-1.552 3.524-3.44 4.546-2.836 1.535-3.52 5.44-3.599 5.968v10.035zm-.456-13.467c.652-1.41 1.7-2.936 3.36-3.833 1.482-.802 2.287-2.089 2.721-3.648.462-1.65.522-3.64.522-5.705 0-.407.33-.738.736-.738h2.173c.158 0 .324.028.493.08.673.212 1.46.915 2.05 1.958.549.976.957 2.28.957 3.78.002.813-.118 1.687-.402 2.599-.59 1.896-.659 2.92-.444 3.439.121.293.464.359.846.359h5.445c.54 0 1.136.055 1.71.211.722.195 1.408.549 1.929 1.144.522.599.857 1.417.857 2.523 0 .497-.069 1.056-.22 1.685.366.898 1.437 4.05-.645 5.972.087.96.098 3.294-1.636 4.41-.289.97-1.397 3.707-4.782 3.707h-9.984c-1.988 0-3.981-1.386-5.23-2.463v.295c0 .634-.257 1.21-.673 1.626l-.049.046c-.411.39-.964.63-1.57.63h-4.537c-.63 0-1.205-.26-1.62-.676-.414-.416-.672-.992-.672-1.626v-14.401c0-.634.258-1.21.673-1.626l.05-.046c.41-.39.963-.63 1.569-.63h4.537c.63 0 1.2.259 1.617.676.078.079.151.163.219.252z" transform="translate(-1053 -100) translate(1053 100.383)"/>
                <path fill="#E1E8F6" d="M322.352 316.617h139.296c.743 0 1.352.572 1.352 1.27v2.462c0 .699-.609 1.268-1.352 1.268H322.352c-.743 0-1.352-.57-1.352-1.268v-2.462c0-.698.609-1.27 1.352-1.27M322.352 323.617h139.296c.743 0 1.352.572 1.352 1.27v2.462c0 .698-.609 1.268-1.352 1.268H322.352c-.743 0-1.352-.57-1.352-1.268v-2.463c0-.697.609-1.269 1.352-1.269M388.345 304.617h73.31c.74 0 1.345.57 1.345 1.27v2.461c0 .699-.606 1.27-1.345 1.27h-73.31c-.74 0-1.345-.571-1.345-1.27v-2.462c0-.698.605-1.269 1.345-1.269M388.345 294.617h73.31c.74 0 1.345.572 1.345 1.27v2.462c0 .698-.606 1.268-1.345 1.268h-73.31c-.74 0-1.345-.57-1.345-1.268v-2.462c0-.698.605-1.27 1.345-1.27M388.345 284.617h73.31c.74 0 1.345.572 1.345 1.27v2.462c0 .699-.606 1.268-1.345 1.268h-73.31c-.74 0-1.345-.57-1.345-1.268v-2.463c0-.697.605-1.269 1.345-1.269" transform="translate(-1053 -100) translate(1053 100.383)"/>
                <path fill="#F8B243" d="M391.4 262.617h67.2c2.42 0 4.4 1.941 4.4 4.315v8.37c0 2.373-1.98 4.315-4.4 4.315h-67.2c-2.42 0-4.4-1.942-4.4-4.314v-8.371c0-2.374 1.98-4.315 4.4-4.315" transform="translate(-1053 -100) translate(1053 100.383)"/>
                <path fill="#E4E1E8" d="M322 112.617c.55 0 1 .58 1 1.288v19.422c0 .71-.45 1.29-1 1.29s-1-.58-1-1.29v-19.422c0-.708.45-1.288 1-1.288M327 112.617c.55 0 1 .58 1 1.288v19.422c0 .71-.45 1.29-1 1.29s-1-.58-1-1.29v-19.422c0-.708.45-1.288 1-1.288M335 112.617c.55 0 1 .58 1 1.288v19.422c0 .71-.45 1.29-1 1.29s-1-.58-1-1.29v-19.422c0-.708.45-1.288 1-1.288M340 112.617c.55 0 1 .58 1 1.288v19.422c0 .71-.45 1.29-1 1.29s-1-.58-1-1.29v-19.422c0-.708.45-1.288 1-1.288M344 112.617c.55 0 1 .58 1 1.288v19.422c0 .71-.45 1.29-1 1.29s-1-.58-1-1.29v-19.422c0-.708.45-1.288 1-1.288M352 112.617c.55 0 1 .58 1 1.288v19.422c0 .71-.45 1.29-1 1.29s-1-.58-1-1.29v-19.422c0-.708.45-1.288 1-1.288M357 112.617c.55 0 1 .58 1 1.288v19.422c0 .71-.45 1.29-1 1.29s-1-.58-1-1.29v-19.422c0-.708.45-1.288 1-1.288M362 112.617c.55 0 1 .58 1 1.288v19.422c0 .71-.45 1.29-1 1.29s-1-.58-1-1.29v-19.422c0-.708.45-1.288 1-1.288M369 112.617c.55 0 1 .58 1 1.288v19.422c0 .71-.45 1.29-1 1.29s-1-.58-1-1.29v-19.422c0-.708.45-1.288 1-1.288M374 112.617c.55 0 1 .58 1 1.288v19.422c0 .71-.45 1.29-1 1.29s-1-.58-1-1.29v-19.422c0-.708.45-1.288 1-1.288M381 112.617c.55 0 1 .58 1 1.288v19.422c0 .71-.45 1.29-1 1.29s-1-.58-1-1.29v-19.422c0-.708.45-1.288 1-1.288M386 112.617c.55 0 1 .58 1 1.288v19.422c0 .71-.45 1.29-1 1.29-.551 0-1-.58-1-1.29v-19.422c0-.708.449-1.288 1-1.288M391 112.617c.55 0 1 .58 1 1.288v19.422c0 .71-.45 1.29-1 1.29s-1-.58-1-1.29v-19.422c0-.708.45-1.288 1-1.288M398 112.617c.55 0 1 .58 1 1.288v19.422c0 .71-.45 1.29-1 1.29s-1-.58-1-1.29v-19.422c0-.708.45-1.288 1-1.288M403 112.617c.55 0 1 .58 1 1.288v19.422c0 .71-.45 1.29-1 1.29s-1-.58-1-1.29v-19.422c0-.708.45-1.288 1-1.288M408 112.617c.55 0 1 .58 1 1.288v19.422c0 .71-.45 1.29-1 1.29s-1-.58-1-1.29v-19.422c0-.708.45-1.288 1-1.288M416 112.617c.55 0 1 .58 1 1.288v19.422c0 .71-.45 1.29-1 1.29s-1-.58-1-1.29v-19.422c0-.708.45-1.288 1-1.288M420 112.617c.55 0 1 .58 1 1.288v19.422c0 .71-.45 1.29-1 1.29s-1-.58-1-1.29v-19.422c0-.708.45-1.288 1-1.288M428 112.617c.55 0 1 .58 1 1.288v19.422c0 .71-.45 1.29-1 1.29s-1-.58-1-1.29v-19.422c0-.708.45-1.288 1-1.288M433 112.617c.55 0 1 .58 1 1.288v19.422c0 .71-.45 1.29-1 1.29s-1-.58-1-1.29v-19.422c0-.708.45-1.288 1-1.288M438 112.617c.551 0 1 .58 1 1.288v19.422c0 .71-.449 1.29-1 1.29-.55 0-1-.58-1-1.29v-19.422c0-.708.45-1.288 1-1.288M445 112.617c.55 0 1 .58 1 1.288v19.422c0 .71-.45 1.29-1 1.29s-1-.58-1-1.29v-19.422c0-.708.45-1.288 1-1.288M450 112.617c.55 0 1 .58 1 1.288v19.422c0 .71-.45 1.29-1 1.29s-1-.58-1-1.29v-19.422c0-.708.45-1.288 1-1.288M455 112.617c.55 0 1 .58 1 1.288v19.422c0 .71-.45 1.29-1 1.29s-1-.58-1-1.29v-19.422c0-.708.45-1.288 1-1.288M462 112.617c.55 0 1 .58 1 1.288v19.422c0 .71-.45 1.29-1 1.29s-1-.58-1-1.29v-19.422c0-.708.45-1.288 1-1.288" transform="translate(-1053 -100) translate(1053 100.383)"/>
                <path fill="#294D3C" d="M101.612 252.574c14.815-7.758 18.576 9.123 12.815 23.102-5.761 13.979-35.316 60.995-36.86 79.643-.598 7.227-1.966 6.438-3.136 1.37-5.84-25.278 6.785-93.434 27.18-104.115" transform="translate(-1053 -100) translate(1053 100.383)"/>
                <path fill="#4A9075" d="M71.17 188.755c-16.32-15.146-26.524 6.056-23.702 26.508 2.82 20.452 25.235 92.569 21.2 117.846-1.565 9.798.426 9.196 3.542 2.846 15.543-31.677 21.425-126.35-1.04-147.2" transform="translate(-1053 -100) translate(1053 100.383)"/>
                <path fill="#1B7154" d="M68.138 340.138c.35.932 1.125.47 2.165-1.081 17.013-57.947-9.49-144.524-9.574-144.802-.144-.477-.639-.744-1.106-.598-.466.147-.728.654-.583 1.13.083.28 26.948 88.04 9.098 145.351" transform="translate(-1053 -100) translate(1053 100.383)"/>
                <path fill="#A6C86B" d="M32.612 237.184c-16.475-7.076-19.06 11.284-11.726 25.758 7.334 14.471 42.87 62.312 46.096 82.123 1.251 7.68 2.645 6.723 3.465 1.207 4.095-27.51-15.156-99.347-37.835-109.088" transform="translate(-1053 -100) translate(1053 100.383)"/>
                <path fill="#5F9850" d="M69.64 350.37c.49.61.96.065 1.36-1.365-1.444-47.793-42.6-105.904-42.73-106.09-.226-.32-.663-.394-.978-.164-.314.23-.386.677-.161.996.132.189 41.848 59.092 42.509 106.624" transform="translate(-1053 -100) translate(1053 100.383)"/>
                <path fill="#3B405F" d="M57.062 340.617L87.939 340.617 96 347.75 89.415 372.617 72.5 372.617 55.585 372.617 49 347.75z" transform="translate(-1053 -100) translate(1053 100.383)"/>
                <path fill="#3B405F" d="M48.55 331.617h46.9c1.402 0 2.55 1.17 2.55 2.6v11.8c0 1.43-1.148 2.6-2.55 2.6h-46.9c-1.402 0-2.55-1.17-2.55-2.6v-11.8c0-1.43 1.148-2.6 2.55-2.6" transform="translate(-1053 -100) translate(1053 100.383)"/>
                <path fill="#101537" d="M96 348.617L94.646 353.617 50.354 353.617 49 348.617z" transform="translate(-1053 -100) translate(1053 100.383)"/>
                <path fill="#9FB2D9" d="M202.15 125.766c0-.634-.515-1.149-1.15-1.149-.634 0-1.15.515-1.15 1.15v2.7h-2.7c-.635 0-1.15.516-1.15 1.15 0 .635.515 1.148 1.15 1.148h2.7v2.703c0 .634.516 1.15 1.15 1.15.635 0 1.15-.516 1.15-1.15v-2.703h2.7c.636 0 1.15-.513 1.15-1.148 0-.634-.514-1.15-1.15-1.15h-2.7v-2.7z" transform="translate(-1053 -100) translate(1053 100.383)"/>
                <path fill="#C0CDEA" d="M69.575 156.895c-.826.242-1.608.58-2.335 1.004-.745.436-1.433.96-2.048 1.56-.12.118-.3.135-.437.054l-2.768-1.614-.015-.01c-.159-.087-.34-.104-.505-.058-.17.045-.323.157-.416.322l-.012.018-1.949 3.408c-.093.166-.112.355-.065.528.045.172.155.325.317.421l.02.01 2.746 1.603c.143.084.21.252.17.408h.002c-.101.412-.179.836-.23 1.272-.052.422-.078.855-.078 1.296 0 .441.026.873.077 1.296.052.436.13.859.23 1.273.043.17-.04.344-.192.42l-2.745 1.6c-.162.096-.272.25-.317.422-.047.172-.028.362.065.525l1.96 3.43v-.002c.094.165.246.276.417.322.17.046.358.028.52-.067l.02-.012 2.749-1.603c.144-.083.321-.057.436.053.615.6 1.303 1.125 2.048 1.56.731.427 1.52.768 2.35 1.01.16.046.266.194.266.355v3.226c0 .19.077.363.201.488.125.126.296.204.484.204h3.919c.187 0 .358-.078.482-.204.125-.125.202-.298.202-.488v-3.226c0-.175.12-.321.282-.36.825-.241 1.608-.58 2.335-1.005.745-.435 1.433-.96 2.048-1.56.125-.12.315-.135.455-.043l2.749 1.605c.162.095.35.113.52.067.17-.046.323-.157.417-.322l.012-.019 1.948-3.41c.093-.163.112-.352.066-.524-.046-.173-.156-.327-.317-.422l-2.765-1.613c-.145-.084-.21-.252-.173-.407.1-.413.178-.837.23-1.272.052-.424.078-.856.078-1.297 0-.44-.026-.874-.077-1.297-.053-.435-.131-.86-.232-1.271-.041-.172.042-.345.194-.42l2.745-1.601c.161-.095.271-.25.317-.421.046-.173.027-.361-.067-.526l-.01-.02-1.948-3.408c-.095-.165-.248-.277-.418-.322-.17-.046-.357-.027-.52.067v.001l-2.767 1.614c-.148.086-.33.056-.445-.06-.613-.598-1.298-1.12-2.04-1.554-.732-.426-1.52-.768-2.35-1.009-.162-.046-.266-.194-.267-.355v-3.225c0-.19-.077-.363-.202-.49-.124-.125-.295-.203-.482-.203H70.54c-.188 0-.36.078-.484.203-.124.127-.201.3-.201.49v3.225c0 .175-.12.322-.281.36zm-1.287 5.967c1.078-1.09 2.567-1.764 4.212-1.764 1.645 0 3.134.673 4.212 1.764 1.078 1.088 1.746 2.594 1.746 4.255 0 1.662-.668 3.167-1.746 4.256-1.078 1.09-2.567 1.764-4.212 1.764-1.645 0-3.134-.675-4.212-1.764-1.078-1.09-1.745-2.594-1.745-4.256 0-1.661.667-3.167 1.745-4.255zM117.119 136.174c-.89.388-1.754.828-2.584 1.317-.847.5-1.66 1.048-2.434 1.643-.774.597-1.516 1.241-2.218 1.932-.026.026-.06.041-.097.046-.036.004-.074-.003-.105-.022-2.057-1.21-4.118-2.415-6.17-3.632-.245-.136-.508-.217-.773-.248-.274-.032-.55-.01-.812.062-.27.074-.528.201-.756.378-.218.17-.407.387-.552.643-1.492 2.46-2.907 5.127-4.332 7.646-.146.254-.233.532-.269.813-.035.29-.016.581.056.855.073.276.199.538.372.77.167.224.379.417.63.565 1.967 1.238 4.1 2.414 6.114 3.599.03.019.056.047.069.08.015.035.018.075.01.11l-.141.582.009.003c-.062.282-.12.569-.171.861-.09.498-.164.99-.222 1.472-.057.477-.1.969-.13 1.476-.03.508-.045 1.007-.045 1.492 0 .485.015.982.045 1.49s.073 1 .13 1.48c.058.48.132.97.222 1.468.09.497.191.98.304 1.446.01.04.006.08-.011.113-.017.038-.044.069-.075.084-2.247 1.224-4.528 2.662-6.75 3.972l.08.1-.069.087c-.172.231-.298.494-.37.77-.073.274-.092.565-.057.856.036.28.123.557.27.812l4.654 8.218.086-.053c.047.044.094.085.143.123.228.177.486.305.756.38.269.073.554.093.837.055.269-.035.532-.12.778-.26 2.036-1.102 4.132-2.432 6.142-3.616.03-.017.066-.022.102-.017.038.003.075.02.1.046.702.69 1.443 1.335 2.218 1.93.773.593 1.585 1.142 2.431 1.641.837.493 1.706.936 2.603 1.323.89.387 1.804.718 2.74.992.036.011.067.033.088.06.024.032.037.07.034.106v7.197c0 .295.06.579.166.839.11.27.27.512.47.713.198.202.436.364.697.476.255.109.533.17.822.17h8.663c.289 0 .567-.061.822-.17.262-.112.499-.274.7-.476.197-.201.357-.443.467-.713.106-.26.166-.544.166-.839v-7.197c0-.043.012-.08.033-.108.023-.029.057-.05.097-.06l.027-.01c.94-.277 1.85-.607 2.722-.986.89-.386 1.754-.827 2.585-1.317.847-.499 1.66-1.048 2.432-1.641.776-.596 1.518-1.243 2.22-1.933.029-.029.065-.044.1-.048.038-.003.077.005.11.028l6.114 3.598c.25.148.522.237.794.272.284.038.57.018.839-.056.27-.074.528-.202.756-.379.212-.165.398-.376.543-.624 1.606-2.633 3.123-5.517 4.656-8.22l-.082-.051c.015-.069.027-.138.035-.208.036-.289.017-.58-.055-.853-.073-.276-.198-.54-.372-.77-.167-.223-.378-.416-.628-.565l-6.116-3.6c-.031-.017-.055-.046-.069-.08-.015-.036-.018-.075-.01-.112l.16-.659-.01-.002c.054-.256.106-.517.154-.782.09-.498.163-.989.221-1.47.057-.48.101-.972.13-1.48.03-.508.046-1.005.046-1.49 0-.484-.016-.982-.046-1.49-.029-.508-.073-1.001-.13-1.482-.057-.478-.131-.968-.221-1.47-.09-.495-.192-.977-.305-1.443-.01-.038-.004-.079.012-.116.016-.034.043-.063.077-.08l6.109-3.595c.251-.149.463-.342.627-.565.174-.233.3-.496.371-.769.072-.273.091-.565.055-.854-.034-.272-.119-.542-.258-.794-1.455-2.748-3.124-5.52-4.664-8.24l-.087.055c-.046-.043-.094-.085-.143-.124-.228-.177-.486-.304-.756-.378-.268-.073-.554-.094-.838-.058-.276.036-.546.126-.794.27l-.452.265v.004l-5.67 3.337c-.034.02-.073.028-.109.023-.036-.005-.071-.023-.097-.05l-.015-.015c-.695-.68-1.435-1.323-2.214-1.922-.776-.596-1.585-1.142-2.42-1.635-.837-.492-1.705-.935-2.6-1.323-.891-.386-1.806-.718-2.74-.99-.037-.012-.068-.034-.09-.062-.024-.032-.037-.07-.034-.106v-7.197c0-.294-.06-.577-.166-.838-.11-.27-.27-.512-.47-.713-.198-.201-.435-.366-.697-.477-.255-.108-.533-.168-.822-.168h-8.663c-.289 0-.567.06-.822.168-.261.111-.499.276-.7.477-.39.398-.633.947-.633 1.551v7.197c0 .042-.013.08-.034.11-.022.027-.056.05-.095.06l-.027.009c-.941.277-1.85.607-2.724.985m3.045.273c-.865.254-1.714.565-2.545.925-.843.365-1.66.782-2.444 1.245-.797.47-1.567.99-2.303 1.556-.74.57-1.443 1.18-2.104 1.83-.235.23-.526.364-.827.401-.306.039-.624-.025-.9-.188-2.028-1.194-4.16-2.374-6.147-3.618-.096-.052-.198-.082-.299-.094-.114-.013-.23-.004-.338.026-.114.032-.22.083-.311.155-.089.067-.166.156-.225.26-1.478 2.28-2.961 5.227-4.331 7.645-.059.104-.094.215-.108.325-.015.117-.006.238.026.356.03.114.08.222.152.316.066.09.152.169.254.23 1.825 1.229 4.175 2.458 6.11 3.598.283.165.49.414.609.697.041.099.072.202.091.307l.126.042-.141.582c-.11.457-.208.914-.29 1.368-.08.443-.149.905-.206 1.39-.056.47-.099.939-.126 1.4-.027.45-.04.924-.04 1.416 0 .492.013.964.04 1.414.027.463.07.93.126 1.402.057.482.126.946.206 1.388.082.456.18.913.29 1.37.082.34.042.679-.091.973-.132.291-.36.536-.654.69l-5.41 3.185v.002l-.64.377c-.102.06-.188.138-.255.228-.07.093-.122.202-.15.317-.033.119-.042.24-.027.356.014.11.05.222.108.325l4.005 7.075.002-.001.324.572c.059.103.136.191.225.259.09.071.197.124.31.154.115.032.234.041.348.027.107-.014.215-.05.317-.11 1.938-1.242 4.124-2.426 6.123-3.603.286-.166.598-.224.894-.187.307.038.599.175.828.398l.002.002c.662.652 1.365 1.263 2.105 1.832.735.566 1.505 1.085 2.301 1.554.79.466 1.613.885 2.461 1.253.834.36 1.7.673 2.591.934.314.092.574.283.758.53.186.25.292.564.292.89l.003 7.197c0 .122.023.237.065.34.044.106.11.205.193.29.08.083.178.15.285.196.101.042.213.067.332.067h8.663c.12 0 .231-.025.332-.067.107-.045.205-.113.286-.196.082-.085.148-.184.192-.29.042-.103.065-.218.065-.34v-7.197c0-.342.118-.66.314-.913.2-.258.481-.447.801-.524.864-.254 1.714-.563 2.545-.925.843-.366 1.66-.782 2.444-1.244.798-.47 1.567-.99 2.303-1.556.74-.568 1.442-1.18 2.104-1.83.245-.24.554-.376.87-.404.322-.03.652.05.93.236l6.043 3.557c.1.06.21.096.32.11.115.014.233.005.349-.027.113-.03.22-.083.31-.154.088-.068.165-.156.225-.26 1.436-2.553 2.893-5.094 4.331-7.646.058-.103.094-.213.108-.325.015-.116.005-.238-.026-.355-.03-.116-.082-.225-.15-.318-.066-.09-.151-.168-.25-.227l-6.116-3.6c-.283-.165-.49-.413-.609-.696-.031-.076-.057-.155-.076-.237l-.16-.033.16-.66c.111-.457.208-.914.29-1.369.08-.442.149-.907.207-1.39.056-.471.099-.94.125-1.402.027-.45.041-.922.041-1.414 0-.492-.014-.964-.04-1.415-.027-.461-.07-.928-.126-1.4-.058-.488-.127-.954-.207-1.394-.082-.452-.179-.908-.29-1.365-.081-.34-.041-.681.092-.974.135-.292.361-.536.65-.69l6.056-3.562c.1-.058.184-.137.252-.228.07-.091.12-.2.151-.318.031-.117.04-.239.026-.354-.014-.111-.05-.223-.108-.326-1.478-2.242-2.96-5.236-4.331-7.646-.06-.104-.137-.193-.224-.26-.092-.072-.198-.123-.311-.155-.116-.031-.234-.04-.348-.026-.106.013-.216.05-.32.111l-6.118 3.6c-.288.172-.611.229-.917.186-.307-.042-.6-.186-.826-.415-.666-.653-1.366-1.262-2.095-1.821-.727-.558-1.494-1.076-2.295-1.548-.79-.465-1.611-.884-2.46-1.252-.834-.361-1.7-.675-2.591-.935-.314-.091-.574-.282-.758-.53-.186-.25-.292-.563-.292-.89l-.003-7.197c0-.122-.023-.236-.064-.339-.045-.105-.111-.205-.194-.29-.08-.084-.178-.15-.285-.196-.1-.043-.212-.067-.332-.067h-8.663c-.12 0-.231.024-.332.067-.107.045-.205.112-.286.195-.158.164-.257.387-.257.63v7.197c0 .345-.117.662-.311.914-.203.258-.484.447-.804.523m1.527 10.36c-1.529.645-2.908 1.596-4.066 2.776-1.158 1.18-2.09 2.588-2.723 4.146-.611 1.503-.948 3.153-.948 4.888 0 1.735.337 3.385.948 4.888.633 1.557 1.565 2.965 2.723 4.145 1.157 1.18 2.537 2.131 4.067 2.776 1.473.622 3.093.966 4.794.966 1.7 0 3.317-.344 4.792-.966 1.53-.645 2.911-1.596 4.068-2.776 1.158-1.18 2.09-2.588 2.724-4.145.61-1.503.947-3.153.947-4.888 0-1.735-.337-3.385-.947-4.888-.634-1.558-1.566-2.965-2.724-4.146-1.157-1.18-2.537-2.13-4.066-2.775-1.474-.623-3.093-.966-4.794-.966-1.702 0-3.32.343-4.795.965m-4.97 1.854c1.269-1.294 2.791-2.341 4.485-3.057 1.63-.687 3.413-1.066 5.28-1.066 1.866 0 3.65.38 5.279 1.067 1.694.715 3.216 1.762 4.487 3.056 1.27 1.295 2.296 2.847 2.997 4.574.675 1.661 1.048 3.479 1.048 5.382 0 1.902-.373 3.721-1.048 5.381-.701 1.728-1.727 3.28-2.997 4.574-1.27 1.296-2.792 2.34-4.485 3.055-1.629.69-3.413 1.07-5.281 1.07-1.867 0-3.65-.38-5.28-1.068-1.694-.715-3.216-1.761-4.486-3.057-1.27-1.294-2.296-2.847-2.998-4.573-.675-1.66-1.047-3.48-1.047-5.382 0-1.903.372-3.72 1.047-5.382.702-1.727 1.728-3.279 2.998-4.574" transform="translate(-1053 -100) translate(1053 100.383)"/>
                <path fill="#9FB2D9" d="M278.15 8.767c0-.634-.515-1.15-1.15-1.15-.634 0-1.15.516-1.15 1.15v2.701h-2.7c-.635 0-1.15.515-1.15 1.15 0 .635.515 1.148 1.15 1.148h2.7v2.702c0 .635.516 1.15 1.15 1.15.635 0 1.15-.515 1.15-1.15v-2.702h2.7c.636 0 1.15-.513 1.15-1.148 0-.635-.514-1.15-1.15-1.15h-2.7V8.767zM592.15 22.766c0-.634-.516-1.149-1.15-1.149-.635 0-1.15.515-1.15 1.149v2.702h-2.7c-.635 0-1.15.515-1.15 1.15 0 .635.515 1.148 1.15 1.148h2.7v2.702c0 .635.515 1.15 1.15 1.15.634 0 1.15-.515 1.15-1.15v-2.702h2.7c.636 0 1.15-.513 1.15-1.148 0-.635-.514-1.15-1.15-1.15h-2.7v-2.702zM612.15 135.766c0-.633-.515-1.149-1.15-1.149-.635 0-1.15.516-1.15 1.15v2.702h-2.7c-.635 0-1.15.513-1.15 1.148 0 .635.515 1.148 1.15 1.148h2.7v2.702c0 .635.515 1.15 1.15 1.15.635 0 1.15-.515 1.15-1.15v-2.702h2.7c.636 0 1.15-.513 1.15-1.148 0-.635-.514-1.148-1.15-1.148h-2.7v-2.703zM609.148 300.766c0-.634-.514-1.149-1.149-1.149s-1.148.515-1.148 1.149v2.702h-2.702c-.635 0-1.149.515-1.149 1.149 0 .635.514 1.149 1.15 1.149h2.7v2.702c0 .635.514 1.15 1.149 1.15s1.15-.515 1.15-1.15v-2.702h2.702c.634 0 1.149-.514 1.149-1.15 0-.633-.515-1.148-1.15-1.148h-2.702v-2.702zM126.15 349.766c0-.633-.515-1.149-1.15-1.149-.634 0-1.15.516-1.15 1.15v2.702h-2.7c-.635 0-1.15.513-1.15 1.148 0 .635.515 1.148 1.15 1.148h2.7v2.703c0 .634.516 1.15 1.15 1.15.635 0 1.15-.516 1.15-1.15v-2.703h2.7c.636 0 1.15-.513 1.15-1.148 0-.635-.514-1.148-1.15-1.148h-2.7v-2.703zM16.149 327.766c0-.633-.515-1.149-1.148-1.149-.635 0-1.15.516-1.15 1.15v2.702H11.15c-.635 0-1.149.513-1.149 1.148 0 .635.514 1.148 1.15 1.148h2.701v2.702c0 .635.515 1.15 1.15 1.15.633 0 1.148-.515 1.148-1.15v-2.702h2.702c.635 0 1.149-.513 1.149-1.148 0-.635-.514-1.148-1.15-1.148H16.15v-2.703zM109.149 224.767c0-.635-.515-1.15-1.15-1.15-.633 0-1.148.515-1.148 1.15v2.701h-2.702c-.635 0-1.149.515-1.149 1.15 0 .634.514 1.148 1.15 1.148h2.701v2.702c0 .635.515 1.15 1.148 1.15.635 0 1.15-.515 1.15-1.15v-2.702h2.702c.635 0 1.149-.514 1.149-1.148 0-.635-.514-1.15-1.15-1.15h-2.701v-2.701zM6.149 214.766c0-.633-.515-1.149-1.15-1.149-.633 0-1.149.516-1.149 1.15v2.702h-2.7c-.636 0-1.15.513-1.15 1.148 0 .635.514 1.148 1.15 1.148h2.7v2.702c0 .635.516 1.15 1.15 1.15.634 0 1.149-.515 1.149-1.15v-2.702H8.85c.635 0 1.149-.513 1.149-1.148 0-.635-.514-1.148-1.15-1.148H6.15v-2.703z" transform="translate(-1053 -100) translate(1053 100.383)"/>
                <path fill="#C0CDEA" d="M231.575 33.895c-.826.24-1.609.58-2.335 1.004-.746.436-1.434.96-2.049 1.56-.12.117-.299.135-.436.054l-2.768-1.614-.016-.01c-.158-.087-.338-.104-.504-.058-.17.045-.323.157-.417.322l-.012.018-1.948 3.408c-.094.165-.112.355-.066.528.045.172.156.325.318.42l.019.012 2.746 1.602c.143.084.21.252.172.408h.001c-.1.412-.179.836-.231 1.272-.052.422-.078.855-.078 1.296 0 .44.026.872.078 1.296.052.436.13.859.231 1.272.042.172-.042.345-.193.42l-2.745 1.6v.001c-.162.095-.273.25-.318.422-.046.172-.028.362.066.525l1.96 3.43v-.002c.094.165.247.276.417.322.17.046.358.028.52-.067l.02-.012 2.75-1.604c.143-.082.32-.056.434.054.615.6 1.303 1.125 2.049 1.56.73.427 1.519.768 2.35 1.01.161.045.266.193.266.355v3.226c0 .19.077.363.201.487.125.127.296.205.484.205h3.918c.188 0 .36-.078.484-.205.124-.124.202-.297.202-.487v-3.226c0-.175.12-.321.28-.36.826-.241 1.609-.58 2.335-1.005.746-.435 1.434-.96 2.049-1.56.125-.122.315-.135.455-.043l2.749 1.605c.162.095.35.113.52.067.17-.046.323-.157.417-.322l.012-.019 1.948-3.41c.093-.163.112-.352.066-.525-.046-.172-.156-.326-.317-.42l-2.765-1.614c-.145-.084-.21-.252-.173-.407.1-.413.178-.837.23-1.273.052-.423.078-.856.078-1.296 0-.44-.026-.874-.078-1.297-.052-.435-.13-.86-.23-1.271-.042-.172.041-.345.193-.42l2.745-1.602c.161-.094.271-.248.317-.42.046-.173.027-.361-.067-.526l-.01-.02-1.948-3.408h-.001c-.094-.165-.247-.277-.417-.322-.17-.046-.357-.028-.52.067v.001l-2.767 1.614c-.148.087-.33.056-.445-.06-.613-.598-1.299-1.12-2.04-1.554-.732-.426-1.52-.768-2.35-1.009-.162-.046-.266-.194-.266-.355V30.31c0-.19-.078-.364-.202-.49-.124-.125-.296-.203-.484-.203h-3.918c-.188 0-.36.078-.484.203-.124.126-.201.3-.201.49v3.225c0 .175-.12.322-.281.36zm-1.287 5.967c1.078-1.09 2.567-1.764 4.212-1.764 1.645 0 3.134.673 4.212 1.764 1.08 1.088 1.745 2.593 1.745 4.255s-.666 3.167-1.745 4.256c-1.078 1.088-2.567 1.763-4.212 1.763-1.645 0-3.134-.675-4.212-1.763-1.078-1.09-1.745-2.594-1.745-4.256 0-1.662.667-3.167 1.745-4.255zM557.575 102.895c-.826.24-1.608.58-2.335 1.004-.745.436-1.433.96-2.048 1.56-.12.117-.3.134-.437.054l-2.768-1.615-.015-.009c-.159-.087-.34-.104-.504-.058-.17.045-.324.156-.418.321l-.01.02-1.95 3.407c-.093.165-.112.354-.066.528.046.17.156.326.32.42l.018.012 2.745 1.602c.144.084.21.252.173.407-.101.413-.18.837-.23 1.272-.052.423-.078.856-.078 1.297 0 .44.026.872.077 1.296.052.435.13.859.23 1.273.043.17-.04.344-.192.418l-2.744 1.601v.001c-.163.095-.273.25-.319.422-.046.172-.027.362.067.525l1.958 3.428c.095.165.249.276.419.322.17.046.357.027.52-.068l.02-.012 2.748-1.602c.145-.084.321-.057.436.053.615.6 1.303 1.125 2.047 1.56.732.427 1.52.768 2.351 1.01.16.045.266.193.266.354v3.227c0 .19.077.363.2.487.126.127.297.205.485.205h3.919c.188 0 .358-.078.483-.205.125-.124.202-.298.202-.487v-3.227c0-.174.119-.32.28-.36.826-.24 1.609-.58 2.336-1.005.745-.434 1.433-.96 2.048-1.559.126-.122.315-.135.455-.042l2.749 1.603c.162.096.35.114.52.068.17-.046.323-.157.417-.322l.013-.019 1.947-3.41c.093-.163.112-.352.066-.524-.046-.172-.155-.327-.317-.422l-2.765-1.613c-.145-.084-.21-.252-.173-.407.1-.414.178-.838.23-1.273.051-.423.077-.855.077-1.296 0-.44-.026-.875-.077-1.297-.052-.435-.13-.86-.23-1.271-.042-.172.041-.345.192-.42l2.746-1.602c.162-.094.271-.248.317-.42.046-.173.027-.362-.067-.526l-.01-.02-1.948-3.409c-.095-.165-.248-.276-.418-.321-.17-.046-.358-.028-.52.067l-2.767 1.615c-.148.087-.332.056-.445-.06-.613-.598-1.298-1.12-2.041-1.554-.731-.426-1.518-.767-2.35-1.009-.16-.046-.265-.194-.265-.355V99.31c0-.19-.077-.364-.202-.49-.125-.125-.295-.203-.483-.203h-3.919c-.188 0-.36.078-.484.203-.124.126-.201.3-.201.49v3.225c0 .175-.12.322-.281.36zm-1.288 5.966c1.08-1.089 2.568-1.763 4.213-1.763 1.646 0 3.134.674 4.213 1.763 1.077 1.089 1.745 2.594 1.745 4.256 0 1.662-.668 3.167-1.745 4.256-1.08 1.088-2.567 1.764-4.213 1.764-1.645 0-3.134-.676-4.213-1.764-1.076-1.09-1.744-2.594-1.744-4.256 0-1.662.668-3.167 1.744-4.256zM422.574 4.896c-.824.24-1.608.58-2.335 1.004-.744.436-1.433.96-2.048 1.56-.12.117-.299.134-.437.054l-2.768-1.615-.014-.009c-.16-.087-.34-.104-.505-.06-.17.047-.323.158-.418.323l-.01.02-1.948 3.407c-.094.165-.113.354-.067.528.046.17.155.325.319.42l.018.012 2.745 1.601c.145.085.21.252.173.408-.1.413-.178.837-.23 1.272-.052.423-.077.856-.077 1.297 0 .44.025.873.077 1.296.052.435.13.859.23 1.273.042.17-.041.344-.192.418l-2.745 1.601c-.163.096-.272.25-.318.422-.046.172-.027.363.067.526l1.958 3.428c.095.165.248.276.418.321.17.047.357.028.52-.067l.02-.012 2.748-1.602c.145-.084.322-.058.436.052.615.6 1.303 1.126 2.048 1.56.732.428 1.52.769 2.352 1.01.16.046.264.194.264.355v3.227c0 .189.078.362.202.487.125.126.295.204.483.204h3.92c.187 0 .358-.078.483-.204.124-.125.201-.298.201-.487v-3.227c0-.174.12-.321.281-.36.826-.24 1.608-.58 2.336-1.005.746-.434 1.433-.96 2.048-1.56.126-.12.315-.135.454-.042l2.75 1.604c.161.096.35.114.52.067.17-.045.323-.156.417-.32l.012-.02 1.949-3.41h-.002c.094-.164.113-.353.067-.525-.045-.172-.155-.327-.317-.422l-2.766-1.613c-.144-.083-.21-.252-.172-.406.1-.414.179-.838.23-1.273.051-.423.078-.855.078-1.296 0-.44-.027-.875-.078-1.298-.051-.434-.13-.858-.23-1.27-.043-.173.041-.345.192-.42l2.746-1.602c.162-.094.272-.248.317-.42.046-.173.027-.362-.067-.527l-.01-.02-1.948-3.408h-.001c-.094-.165-.247-.276-.417-.322-.17-.046-.358-.027-.52.068l-2.767 1.615c-.148.086-.331.055-.446-.061-.613-.597-1.298-1.12-2.04-1.553-.731-.427-1.519-.768-2.35-1.009-.16-.046-.266-.195-.266-.356V1.31c0-.19-.077-.363-.201-.489-.125-.126-.296-.204-.484-.204h-3.919c-.188 0-.358.078-.483.204-.124.126-.202.3-.202.49v3.224c0 .176-.12.323-.28.36zm-1.286 5.966c1.077-1.09 2.568-1.763 4.212-1.763 1.645 0 3.133.673 4.213 1.763 1.078 1.089 1.744 2.594 1.744 4.256 0 1.662-.666 3.166-1.744 4.255-1.08 1.09-2.568 1.764-4.213 1.764-1.644 0-3.135-.675-4.212-1.764-1.078-1.089-1.745-2.593-1.745-4.255s.667-3.167 1.745-4.256z" transform="translate(-1053 -100) translate(1053 100.383)"/>
                <path fill="#D64C47" d="M563.148 364.368s-1.128-1.946-2.797-1.076c-1.669.87-1.965.77-3.535-.256-1.57-1.025-4.847.154-4.847.154s-9.533 3.227-10.76 3.739c-1.227.513-2.209 1.486-2.209 4.305l1.326 1.383h22.48s1.128-.974 1.177-1.794c.05-.82.05-5.226-.835-6.455" transform="translate(-1053 -100) translate(1053 100.383)"/>
                <path fill="#FFF" d="M539.738 372.617h23.524c.406 0 .738.26.738.578v.845c0 .317-.332.577-.738.577h-23.524c-.406 0-.738-.26-.738-.577v-.845c0-.318.332-.578.738-.578" transform="translate(-1053 -100) translate(1053 100.383)"/>
                <path fill="#D64C47" d="M509.148 364.368s-1.13-1.947-2.798-1.076c-1.668.872-1.963.769-3.533-.256-1.57-1.024-4.848.153-4.848.153s-9.532 3.229-10.76 3.742c-1.227.511-2.209 1.485-2.209 4.303l1.327 1.383h22.478s1.129-.973 1.178-1.793c.05-.82.05-5.226-.835-6.456" transform="translate(-1053 -100) translate(1053 100.383)"/>
                <path fill="#FFF" d="M485.797 372.617h25.407c.438 0 .796.26.796.578v.845c0 .318-.358.577-.796.577h-25.407c-.438 0-.797-.259-.797-.577v-.845c0-.318.359-.578.797-.578" transform="translate(-1053 -100) translate(1053 100.383)"/>
                <path fill="#F5AC83" d="M466 155.088c-1.441-1.592-1.767-3.32-1.767-4.457 0-1.136.42-3.045-.325-5.547-.744-2.5-1.581-1.683-1.813-.182-.232 1.501-.93 3.41-.93 3.41s-3.905-3.182-5.393-4.637c-1.487-1.456-3.067-1.319-2.975-.137.093 1.182.559 1.182.093 1.364-.464.182-.883.454-.698 1.274l.187.818s-1.023.136-1.07.91c-.045.772.652 1.773.652 1.773s-1.163.591-.93 1.136c.233.546 2.929 3.502 4.834 4.729 1.907 1.228 5.021 2.728 5.95 3.91.93 1.182 4.185-4.364 4.185-4.364" transform="translate(-1053 -100) translate(1053 100.383)"/>
                <path fill="#00000F" d="M523.161 217.983c-1.69-.438-3.241-.897-3.801 1.284-5.893 22.959-9.52 43.427-11.326 66.616-.623 9.62 7.418 11.927 10.556 10.216 9.404-5.13 28.307-66.034 28.356-66.382 1.366-9.691-23.785-11.734-23.785-11.734" transform="translate(-1053 -100) translate(1053 100.383)"/>
                <path fill="#0D1431" d="M530.182 222.507c-1.715.123-3.304.182-3.175 2.427 1.365 23.64 4.105 44.194 9.364 66.75 2.302 9.318 10.521 8.945 12.946 6.323 7.268-7.855 6.709-71.605 6.65-71.95-1.625-9.622-25.785-3.55-25.785-3.55" transform="translate(-1053 -100) translate(1053 100.383)"/>
                <path fill="#00000F" d="M506.202 292.493c-.526 16.309.295 51.476-4.202 71.084 1.359 1.705 5.712 2.954 7.63 1.173 1.69-1.568 10.587-46.518 12.328-71.518 0 0 .582-8.922-2.603-12.042-3.115-3.054-12.542-2.802-13.153 11.303" transform="translate(-1053 -100) translate(1053 100.383)"/>
                <path fill="#0D1431" d="M537.917 297.378c4.404 15.148 15.388 46.338 17.983 66.97.768 6.112 7.717 1.848 7.925 1.484 1.185-2.073-3.803-48.116-9.985-72.899 0 0-2.247-8.83-6.404-10.81-4.07-1.938-13.377 1.394-9.519 15.255" transform="translate(-1053 -100) translate(1053 100.383)"/>
                <path fill="#FCC100" d="M556.275 228.53c-5.575 13.198-37.932 11.456-40.752 5.992l-.002-.002c-.944-1.835-.398-4.554.029-6.984 5.46-31.137-8.06-68.967 13.882-79.702l3.009-1.471c.218-1.187.012-2.443-.48-3.71 2.464-.43 4.602 3.066 7.242 3.175l2.535-.956c17.666 9.257 8.314 33.584 11.059 55.838 1.188 9.65 6.01 21.829 3.478 27.82" transform="translate(-1053 -100) translate(1053 100.383)"/>
                <path fill="#FCC100" d="M534.648 174.311c-14.662 3.416-31.786 7.943-35.063 7.232-4.223-.918-33.389-16.233-38.583-22.724-.086-.105 3.344-4.381 3.796-4.962.859-1.106.212-1.826.991-.597.781 1.227 28.635 11.191 33.949 13.701 5.314 2.511 25.033-10.029 28.864-11.483 17.732-6.737 27.742 13.779 6.046 18.833" transform="translate(-1053 -100) translate(1053 100.383)"/>
                <path fill="#F5AC83" d="M511.1 115.617l-1.1 6.146s5.427 15.44 8.194 18.062c2.768 2.624 5.045 3.534 8.946 2.148 3.9-1.386 2.686-7.276 2.665-9.059-.02-1.782-5.604-17.288-18.705-17.297" transform="translate(-1053 -100) translate(1053 100.383)"/>
                <path fill="#F5AC83" d="M525.728 134.79L522 137.113s6.441 12.148 7.231 12.49c.788.342 13.949-5.727 12.683-7.409-1.265-1.681-2.853-3.067-3.785-4.984-.933-1.918-1.854-4.593-1.854-4.593l-10.547 2.173z" transform="translate(-1053 -100) translate(1053 100.383)"/>
                <path fill="#FFF" d="M527.397 146.477s-.529.713-.366 1.455c.108.492.357 1.852.513 2.714l.135.75s1.027.913 4.417-.974c3.391-1.887 9.505-6.205 9.856-6.944.353-.74-1.356-3.86-1.356-3.86s-8.498 5.337-13.2 6.86" transform="translate(-1053 -100) translate(1053 100.383)"/>
                <path fill="#070725" d="M508.963 121.718s1.7-3.91 4.647-1.138c2.945 2.773 2.123 8.426 2.504 9.071.381.646.714-3.7 2.875-3.536 2.16.165 1.182 5.703.906 7.777-.274 2.073 2.84 4.157 5.026 5.356 2.187 1.2 10.777-.82 11.777-1.833s4.372-15.762.45-25.876c-3.922-10.113-14.225-10.692-20.41-6.376-5.46 3.807-5.612-1.337-9.955 2.997-3.766 3.756-.855 11.334 2.18 13.558" transform="translate(-1053 -100) translate(1053 100.383)"/>
                <path fill="#070725" d="M509.876 120.2c.097.04.148.163.113.275-.036.112-.144.17-.242.13-.015-.008-5.193-2.106-4.716-9.788.007-.119.098-.208.202-.2.104.01.183.112.176.23-.458 7.357 4.452 9.347 4.467 9.353M521.673 105.666c.072-.064.193-.065.269-.005.075.062.078.163.005.226-.011.01-3.826 3.377-9.847.691-.092-.042-.127-.138-.077-.216.048-.078.164-.107.256-.066 5.766 2.572 9.383-.62 9.394-.63" transform="translate(-1053 -100) translate(1053 100.383)"/>
                <path fill="#F5AC83" d="M510.238 118.92s-.281 6.566-.232 7.774c.05 1.206 1.054 2.037 1.32 3.707.265 1.669-.117 5.156-.04 6.028.079.87 2.008.39 2.515.86.055.052 4.16 5.41 4.207 5.525 1.489 3.67 5.059.783 6.992-.331l-5.65-6.905-4.977-19.96c-2.03.747-3.654 1.817-4.135 3.303" transform="translate(-1053 -100) translate(1053 100.383)"/>
                <path fill="#ED7C67" d="M289 234.758c.132 3.519.479 4.696 1.832 6.063 1.883 1.903-.908 3.663-.56 5.692.132.799 1.122.106 1.782-.464.661-.568-.743 1.744.182 1.37.907-.39 1.65-1.333 1.65-1.333s-.297 1.741.314 1.51c2.872-1.101 1.733-9.14.512-11.096-.1-.177-3.318-4.624-4.936-5.762-.975-.676-.693 1.706-.693 1.706l-.083 2.314z" transform="translate(-1053 -100) translate(1053 100.383)"/>
                <path fill="#FCB187" d="M289 227.617c4.11 6.8 5.139 6.068 4.986 10.851-.029 1.252-.029 2.138-.015 2.766.056 2.938-2.014.868-1.888-3.131 0 0-2.5-1.653-2.653-5.617-.138-3.947-.43-4.869-.43-4.869" transform="translate(-1053 -100) translate(1053 100.383)"/>
                <path fill="#B4C5E6" d="M344.11 133.454c-4.728-3.333-10.382-4.449-15.67-3.525-5.304.908-10.26 3.839-13.593 8.584-3.35 4.729-4.45 10.382-3.542 15.668.908 5.304 3.857 10.242 8.586 13.59 4.745 3.334 10.381 4.45 15.685 3.543 5.288-.924 10.245-3.856 13.576-8.583 3.35-4.746 4.45-10.382 3.543-15.686-.907-5.286-3.838-10.241-8.585-13.591" transform="translate(-1053 -100) translate(1053 100.383)"/>
                <path fill="#FCC100" d="M337.004 145.22l7.816-.026c.51 0 .961.295 1.123.738.16.443-.027.935-.427 1.206l-6.35 4.232 2.427 6.839c.16.468 0 .935-.399 1.205-.43.27-.963.27-1.39 0l-6.296-4.256-6.324 4.256c-.426.27-.962.27-1.39 0-.4-.27-.559-.737-.4-1.205l2.43-6.839-6.353-4.232c-.398-.271-.559-.763-.424-1.206.158-.443.612-.738 1.121-.738l7.818.025 2.401-6.864c.16-.467.586-.738 1.12-.738.506 0 .934.271 1.093.738l2.404 6.864z" transform="translate(-1053 -100) translate(1053 100.383)"/>
                <path fill="#F5C890" d="M317.21 164.617H348c-3.207 3.696-7.773 5.993-12.643 6.744-5.104.767-10.527-.177-15.092-2.99-1.646-1.03-3.073-2.238-4.265-3.562.37-.119.79-.192 1.21-.192" transform="translate(-1053 -100) translate(1053 100.383)"/>
                <path fill="#070725" d="M277.71 147.451s-3.908 6.878 1.764 13.391c9.48 10.89 12.217 29.716-5.029 25.044-17.229-4.654-14.938-23.116-13.404-26.155 1.533-3.04.428-14.434 4.04-15.04 3.594-.609 12.629 2.76 12.629 2.76M236.211 360.617l-1.211.895s1.499 10.281.617 14.105h2.533l1.85-10.97-3.789-4.03zM197.211 355.617L196 356.8s1.499 13.713.639 18.817h2.51L201 360.99l-3.789-5.372z" transform="translate(-1053 -100) translate(1053 100.383)"/>
                <path fill="#ED7C67" d="M257 261.646s-12.12 27.593-14.203 31.465c-2.102 3.872-20.474 31.617-26.763 45.328-6.27 13.712-6.576 13.493-6.509 17.296.085 3.804 1.492 9.367 1.577 9.822.068.44.899 4.904.305 5.057-.61.151-5.983-5.327-5.983-5.327s-2.848-3.702-3.372-4.666c-.509-.963-3.695-3.447-3.695-3.447L196 351.947s4.323-1.42 7.085-6.035c2.763-4.632 23.034-52.954 25.288-56.386 2.238-3.432 9.491-13.49 11.66-17.735 2.17-4.261 1.865-19.174 1.865-19.174l15.102 9.03z" transform="translate(-1053 -100) translate(1053 100.383)"/>
                <path fill="#FCB187" d="M251.26 256.6s-3.207 25.901-3.505 28.754c-.28 2.835-5.107 63.466-4.512 66.759.579 3.293 4.96 14.292 7.802 17.076 2.843 2.766-1.471 3.36-2.479 3.428-1.025.085-12.183-12.187-12.612-12.798-.447-.594-.447-1.342-.447-1.342s1.967-7.11 1.901-8.3c-.065-1.203-2.909-47.305-2.33-51.957.579-4.633 1.454-12.713 1.603-15.122.149-2.395-1.174-31.436-.876-33.236.297-1.782 15.456 6.738 15.456 6.738" transform="translate(-1053 -100) translate(1053 100.383)"/>
                <path fill="#0D1431" d="M267 202.322l-2.776 7.227s.981 2.66.372 8.265c-.592 5.604-4.316 38.518-2.235 56.22 0 0-26.272 12.983-51.361-10.475 0 0 8.668-10.34 12.24-23.759 3.588-13.435 13.594-38.667 24.19-42.281 10.598-3.614 19.57 4.803 19.57 4.803" transform="translate(-1053 -100) translate(1053 100.383)"/>
                <path fill="#B72E2E" d="M270.55 166.617s-4.654 4.876-5.466 9.87c-.811 4.976 4.506 31.986 4.72 33.529.232 1.523 18.254 25.601 18.254 25.601l3.942-6.081s-14.626-20.795-15.172-23.626c-.548-2.83.232-21.23.232-21.23l-.663-12.751-5.847-5.312z" transform="translate(-1053 -100) translate(1053 100.383)"/>
                <path fill="#FFF" d="M269.024 143.71L270 150s-3.839 6.066-2.283 11.015c1.555 4.95-9.597-2.819-12.658-6.41-3.06-3.592-1.803-5.448-1.803-5.448s5.327-4.812 6.568-10.02c1.257-5.19 9.2 4.572 9.2 4.572" transform="translate(-1053 -100) translate(1053 100.383)"/>
                <path stroke="#1E1F31" stroke-width=".567" d="M269.024 143.71L270 150s-3.839 6.066-2.283 11.015c1.555 4.95-9.597-2.819-12.658-6.41-3.06-3.592-1.803-5.448-1.803-5.448s5.327-4.812 6.568-10.02c1.257-5.19 9.2 4.572 9.2 4.572z" transform="translate(-1053 -100) translate(1053 100.383)"/>
                <path fill="#ED7C67" d="M272.232 159.617c-.073-.628-.147-4.667-.147-4.667s.64-4.434 2.578-5.224c1.938-.79-5.119-4.434-5.119-4.434s-7.057-1.256-7.843-.34c-.787.897-1.701 5.277-1.701 5.277s.658 7.037 1.792 7.18c1.152.144 10.44 2.208 10.44 2.208" transform="translate(-1053 -100) translate(1053 100.383)"/>
                <path fill="#FCB187" d="M279.396 123.993c1.242.938 2.91 2.05 3.489 4.866.629 3.163.05 8.167.629 10.41.8 3.076 1.634 3.528 1.464 4.137-.153.538-1.004.433-1.94.99-.528.33-.545 1.737-.715 2.33-.732 2.432.238 5.524-6.298 4.778-5.004-.574-9.378-2.694-12.902-5.648-3.523-2.955-4.237-13.017-1.259-15.816 2.963-2.798 9.566-10.549 17.532-6.047" transform="translate(-1053 -100) translate(1053 100.383)"/>
                <path fill="#DB4A46" d="M260.392 149.617s-11.749 8.927-13.292 16.623c-1.56 7.696 3.136 20.96-2.855 29.753 0 0-1.211 1.396-1.245 1.762-.033.367 9.726 13.564 21.59 12.833 0 0 .431-.3.465-.782.05-.465 7.982-16.954 10.321-19.896 2.34-2.926 4.315-7.48 4.615-9.824.297-2.344-6.617-12.72-7.347-15.812-.73-3.075-1.283-10.285-1.283-10.285s-5.858.88-10.97-4.372" transform="translate(-1053 -100) translate(1053 100.383)"/>
                <path fill="#FFF" d="M271.566 154.444s-4.017.75-8.141-2.827c-.736.187-1.242.3-1.334.282-.415-.057-5.883 5.066 2.734 7.912 5.703 1.872 6.715 2.361 7.175 1.126l-.434-6.493z" transform="translate(-1053 -100) translate(1053 100.383)"/>
                <path fill="#B72E2E" d="M281.6 201.913s-13.706-27.858-15.655-31.411c-1.965-3.535-7.01-4.891-9.643-3.09-2.648 1.803-1.148 10.745 3.514 17.834 4.664 7.09 16.804 22.624 18.054 23.136 1.249.515 3.098.172 3.665-.908.565-1.065.648-4.531.066-5.561" transform="translate(-1053 -100) translate(1053 100.383)"/>
                <path fill="#1E1F31" d="M323.57 166.617l-9.403 17.958c-.36.67-.12 1.5.529 1.87.651.37 1.471.124 1.813-.546L326 167.78c-.839-.247-1.659-.618-2.43-1.164" transform="translate(-1053 -100) translate(1053 100.383)"/>
                <path fill="#B72E2E" d="M307.55 181.617c-6.195 3.574-28.32 15.942-29.976 16.937-1.915 1.147-4.056 5.121-1.155 7.282 2.899 2.16 8.282-.65 10.905-2.527 2.278-1.613 17.24-13.862 21.676-17.453-1.26-1.296-1.503-3.01-1.45-4.239" transform="translate(-1053 -100) translate(1053 100.383)"/>
                <path fill="#FCB187" d="M320.995 176.764c.083-.224-.93-3.11-1.403-3.781-.458-.652-.947-1.62-2.874-1.304-1.91.317-2.434.336-3.266.931-.833.597-5.193 7.489-5.944 8.196-.097.093-.637.465-1.502 1.062-.05 1.378.18 3.298 1.372 4.75.668-.633 1.092-1.026 1.16-1.1.555-.447 3.64-.652 4.244-.95.589-.298 1.96-3.557 2.564-4.023.62-.446 1.943.726 1.797 1.248 0 0 .898-.391 1.126-.838.23-.447.327-1.248.327-1.248s.8-.186.98-.391c.162-.204.277-.932.277-.932.588-.558.8-.8 1.142-1.62" transform="translate(-1053 -100) translate(1053 100.383)"/>
                <path fill="#070725" d="M281.06 127.168s2.72-7.4-1.094-10.101c-4.195-2.968-21.446-8.769-21.95.916 0 0-5.548-.1-7.109 4.284-1.56 4.384.885 9.301-6.067 13.468-6.953 4.168-18.518 15.186-13.698 26.537 4.803 11.351 20.13 14.486 29.32 8.035 9.188-6.468 7.558-12.136 7.229-15.502-.347-3.351 2.635-6.518 5.964-8.935 3.33-2.434 3.78-5.65 1.51-8.868-2.29-3.233 1.264-8.535 5.894-9.834" transform="translate(-1053 -100) translate(1053 100.383)"/>
                <path fill="#1F223F" d="M209.945 367.357s1.333.223 2.045.549c.694.323 4.892 3.77 5.372 4.128.462.341 1.832 3.583-1.814 3.583h-6.581c-1.334 0-5.301-4.811-6.742-6.74-1.458-1.947-8.395-10.358-8.787-10.921-.391-.563-.995-4.47.658-4.335 0 0 12.54 14.948 12.807 15.239.285.273.782.58 1.92.801 1.158.224 1.122-.904 1.122-2.304M249.905 369.07s1.35-.05 2.06.135c.693.183 4.887 2.772 5.366 3.022.462.267 1.918 3.39-1.811 3.39h-8.883c-1.812 0-2.985-1.988-4.424-3.608-1.456-1.618-8.384-8.55-8.775-9.018-.392-.485-.995-4.19.657-4.374 0 0 12.524 12.274 12.79 12.49.267.217.782.418 1.92.418 1.154 0 1.1-1.084 1.1-2.455" transform="translate(-1053 -100) translate(1053 100.383)"/>
                <path fill="#1E1F31" d="M329.745 130.738c4.826-.838 9.991.167 14.297 3.218 4.326 3.05 7.009 7.575 7.846 12.402.838 4.843-.185 9.988-3.235 14.313-3.05 4.323-7.56 7.005-12.405 7.827-4.828.837-9.973-.168-14.297-3.219-4.327-3.05-7.008-7.575-7.845-12.401-.823-4.827.183-9.99 3.234-14.314 3.05-4.323 7.56-7.005 12.405-7.826m15.94.904c-4.961-3.502-10.878-4.658-16.427-3.704-5.547.956-10.729 4.04-14.23 9-3.506 4.962-4.662 10.878-3.706 16.425.956 5.547 4.023 10.726 8.985 14.229 4.961 3.502 10.878 4.66 16.428 3.704 5.548-.955 10.729-4.04 14.23-9 3.504-4.96 4.679-10.877 3.707-16.408-.957-5.547-4.025-10.743-8.986-14.246" transform="translate(-1053 -100) translate(1053 100.383)"/>
            </g>
        </g>
    </g>
</svg>
